#N canvas 537 103 642 422 10;
#X obj 233 197 cos~;
#X obj 306 197 cos~;
#X obj 309 72 hsl 100 15 0 0.25 0 0 empty empty empty -2 -8 0 10 -262144
-1 -1 9900 1;
#X floatatom 366 100 5 0 0 0 - - -, f 5;
#X obj 306 111 + 0.75;
#X obj 219 245 *~;
#X obj 292 247 *~;
#X text 69 22 Equal power panning using;
#X msg 233 138 \$1 12;
#X obj 233 165 vline~;
#X msg 306 145 \$1 12;
#X obj 306 172 vline~;
#X obj 219 303 outlet~;
#X obj 293 303 outlet~;
#X obj 67 123 inlet~;
#X obj 306 15 inlet;
#X obj 306 42 expr $f1/8 + 0.125;
#X text 348 172 avoid crackle;
#X text 430 72 <-- Range: -45 - 45 to 0-.25;
#X text 70 36 curves from [cos~] \; Maelstrom style;
#X connect 0 0 5 1;
#X connect 1 0 6 1;
#X connect 2 0 3 0;
#X connect 2 0 4 0;
#X connect 2 0 8 0;
#X connect 4 0 10 0;
#X connect 5 0 12 0;
#X connect 6 0 13 0;
#X connect 8 0 9 0;
#X connect 9 0 0 0;
#X connect 10 0 11 0;
#X connect 11 0 1 0;
#X connect 14 0 5 0;
#X connect 14 0 6 0;
#X connect 15 0 16 0;
#X connect 16 0 2 0;
