#N canvas 533 105 642 422 10;
#X obj 163 261 *~;
#X obj 258 260 *~;
#X obj 274 228 -~;
#X obj 273 185 sig~ 1;
#X obj 289 134 sig~;
#X obj 289 90 + 45;
#X obj 289 111 / 90;
#X obj 289 68 inlet;
#X obj 153 84 inlet~;
#X obj 168 385 outlet~;
#X obj 259 385 outlet~;
#X text 402 115 Hard pan. No Smoothing;
#X connect 0 0 9 0;
#X connect 1 0 10 0;
#X connect 2 0 1 1;
#X connect 3 0 2 0;
#X connect 4 0 2 1;
#X connect 4 0 0 1;
#X connect 5 0 6 0;
#X connect 6 0 4 0;
#X connect 7 0 5 0;
#X connect 8 0 1 0;
#X connect 8 0 0 0;
