#N canvas 648 550 227 217 10;
#X obj 57 51 loadbang;
#X obj 33 166 throw~ L;
#X obj 103 166 throw~ R;
#N canvas 356 81 858 686 PLAYHSV 1;
#X obj 292 27 r Synth_\$1;
#X obj 292 64 unpack f f f;
#X obj 260 665 outlet~;
#X obj 345 361 expr 1 -$f1;
#X obj 259 643 *~;
#X obj 519 442 delay 100;
#X obj 564 282 r SustOnOff;
#X obj 563 415 r SustTime;
#X obj 519 361 spigot 1;
#X obj 564 307 sel 0 1;
#X msg 564 332 1;
#X msg 599 334 0;
#N canvas 242 203 911 465 escalas 1;
#X obj 26 -187 inlet;
#X obj 120 -177 r scalaH;
#X obj -94 30 int;
#X text -77 -35 12 note strict;
#X text -201 -132 the scale is twelwe notes (1 octave);
#X obj 35 210 outlet;
#X obj 27 -161 expr 1 - $f1;
#X obj -159 -71 * 12;
#X obj -80 -58 * 12;
#N canvas 954 199 450 300 pentatonic_M 0;
#X obj 101 2 inlet;
#X obj 156 248 outlet;
#X obj 143 65 * 6;
#X obj 139 114 int;
#X obj 141 149 sel 0 1 2 3 4 5;
#X obj 112 38 t b f;
#X msg 108 181 1;
#X obj 85 232 * 1;
#X msg 147 191 1.125;
#X obj 137 92 + 0.49999;
#X msg 191 194 1.25;
#X msg 236 194 1.5;
#X msg 269 196 1.66667;
#X msg 328 198 2;
#X obj 61 137 f 33;
#X obj 14 65 r f0;
#X connect 0 0 5 0;
#X connect 2 0 9 0;
#X connect 3 0 4 0;
#X connect 4 0 6 0;
#X connect 4 1 8 0;
#X connect 4 2 10 0;
#X connect 4 3 11 0;
#X connect 4 4 12 0;
#X connect 4 5 13 0;
#X connect 5 0 14 0;
#X connect 5 1 2 0;
#X connect 6 0 7 1;
#X connect 7 0 1 0;
#X connect 8 0 7 1;
#X connect 9 0 3 0;
#X connect 10 0 7 1;
#X connect 11 0 7 1;
#X connect 12 0 7 1;
#X connect 13 0 7 1;
#X connect 14 0 7 0;
#X connect 15 0 14 1;
#X restore 323 29 pd pentatonic_M;
#N canvas 65 293 450 300 pentatonic_m 0;
#X obj 101 2 inlet;
#X obj 156 248 outlet;
#X obj 143 65 * 6;
#X obj 139 114 int;
#X obj 141 149 sel 0 1 2 3 4 5;
#X obj 112 38 t b f;
#X msg 108 181 1;
#X obj 85 232 * 1;
#X obj 137 92 + 0.49999;
#X msg 236 194 1.5;
#X msg 328 198 2;
#X msg 141 183 1.2;
#X msg 175 188 1.33333;
#X msg 269 196 1.8;
#X obj 61 137 f 33;
#X obj 21 49 r f0;
#X connect 0 0 5 0;
#X connect 2 0 8 0;
#X connect 3 0 4 0;
#X connect 4 0 6 0;
#X connect 4 1 11 0;
#X connect 4 2 12 0;
#X connect 4 3 9 0;
#X connect 4 4 13 0;
#X connect 4 5 10 0;
#X connect 5 0 14 0;
#X connect 5 1 2 0;
#X connect 6 0 7 1;
#X connect 8 0 3 0;
#X connect 9 0 7 1;
#X connect 10 0 7 1;
#X connect 11 0 7 1;
#X connect 12 0 7 1;
#X connect 13 0 7 1;
#X connect 14 0 7 0;
#X connect 15 0 14 1;
#X restore 325 1 pd pentatonic_m;
#X obj 65 -4 + 26;
#X obj 631 -43 * 24;
#X obj -120 -61 r f0;
#X obj -120 -40 ftom;
#X obj 35 121 mtof;
#X text 637 -63 2 octaves;
#X obj 677 -41 r f0;
#X obj 677 -20 ftom;
#X obj -168 -3 + 45;
#X obj -97 8 + 45;
#X obj 631 -22 + 45;
#X obj 116 20 int;
#X obj 116 47 tabread midi4th_scale;
#X obj 393 -109 + 11;
#X obj 392 -136 * -11;
#X floatatom 391 -160 5 0 0 0 - - -;
#X text 449 -159 4ths scale is "upside down" should it not? :);
#X obj 131 76 r fourthSHift;
#X obj 137 -73 r ScaleSize;
#X obj 116 106 + 0;
#N canvas 348 81 592 612 just_scale 0;
#X obj 230 532 1 28/27 14/13 10/9 7/6 6/5 5/4 9/7 4/3 7/5 10/7 3/2
14/9 8/5 5/3 12/7 9/5 13/7 27/14;
#X obj 102 549 outlet;
#X obj 116 32 inlet;
#X obj 164 388 * 1;
#X obj 84 294 f 33;
#X obj 126 222 r f0;
#X obj 116 64 t b f;
#X text 264 438 just intonation (Galilei);
#X obj 282 457 1 9/8 5/4 4/3 3/2 5/3 15/8 2;
#X text 580 534 all harmonics;
#X obj 171 110 * 15;
#X obj 238 202 int;
#X obj 237 288 tabread just_intonation_scale;
#X floatatom 141 276 5 0 0 0 - - -;
#X obj 319 385 tabread just_intonation_scale;
#X floatatom 310 338 5 0 0 0 - - -;
#X floatatom 321 415 12 0 0 0 - - -;
#X connect 2 0 6 0;
#X connect 3 0 1 0;
#X connect 4 0 3 0;
#X connect 5 0 4 1;
#X connect 5 0 13 0;
#X connect 6 0 4 0;
#X connect 6 1 10 0;
#X connect 10 0 11 0;
#X connect 11 0 12 0;
#X connect 12 0 3 1;
#X connect 14 0 16 0;
#X connect 15 0 14 0;
#X restore 320 137 pd just_scale;
#N canvas 419 309 668 451 Chromatic-2-oct 0;
#X obj 30 -19 inlet;
#X msg 359 181 1;
#X msg 426 184 2;
#X msg 536 188 4;
#X msg 611 189 6;
#X obj 112 274 outlet;
#X obj 369 143 sel 0 1 2 3 4 5 6 7;
#X text 198 114 incoming frequency;
#X obj 30 7 t b f;
#X obj 351 254 * 1;
#X obj 326 78 table hjazz_scale;
#X msg 391 182 1.5;
#X msg 457 185 2.5;
#X msg 495 185 3.5;
#X msg 568 187 5.5;
#X obj 160 49 r f0;
#X obj 136 147 f 33;
#X obj 31 108 * 24;
#X obj 35 141 int;
#X obj 57 185 +;
#X floatatom 27 252 5 0 0 0 - - -;
#X obj 142 107 ftom;
#X text 172 18 2 octaves cromatic scale;
#X floatatom 189 153 5 0 0 0 - - -;
#X obj 34 164 + 0.5;
#X connect 0 0 8 0;
#X connect 1 0 9 1;
#X connect 2 0 9 1;
#X connect 3 0 9 1;
#X connect 4 0 9 1;
#X connect 6 0 1 0;
#X connect 6 1 11 0;
#X connect 6 2 2 0;
#X connect 6 3 12 0;
#X connect 6 4 13 0;
#X connect 6 5 3 0;
#X connect 6 6 14 0;
#X connect 6 7 4 0;
#X connect 8 0 16 0;
#X connect 8 1 17 0;
#X connect 11 0 9 1;
#X connect 12 0 9 1;
#X connect 13 0 9 1;
#X connect 14 0 9 1;
#X connect 15 0 23 0;
#X connect 15 0 21 0;
#X connect 16 0 19 1;
#X connect 17 0 18 0;
#X connect 18 0 24 0;
#X connect 19 0 5 0;
#X connect 19 0 20 0;
#X connect 21 0 16 1;
#X connect 24 0 19 0;
#X restore 181 -8 pd Chromatic-2-oct;
#X obj 116 -8 + 0.5;
#X obj 116 163 int;
#X obj 116 137 + 0.5;
#N canvas 787 128 491 615 INDIAN 0;
#X obj 2 14 inlet;
#X obj 117 519 outlet;
#X obj 2 39 t b f;
#X obj 24 417 * 1;
#X obj -6 175 r f0;
#X obj -27 225 f 33;
#X obj 271 402 tabwrite Indian-Scale;
#X floatatom 383 361 12 0 0 0 - - -;
#X floatatom 201 325 12 0 0 0 - - -;
#X obj 374 308 f;
#X obj 371 266 bng 30 250 50 0 empty empty empty 17 7 0 10 -262144
-1 -1;
#X obj 426 307 + 1;
#X obj 47 202 tabread Indian-Scale;
#X floatatom 423 274 5 0 0 0 - - -;
#X obj 39 77 * 44;
#X obj 118 100 moses 23;
#X obj 79 277 tabread Indian-Scale;
#X obj 88 332 * 2;
#X obj 99 248 - 22;
#X connect 0 0 2 0;
#X connect 2 0 5 0;
#X connect 2 1 14 0;
#X connect 3 0 1 0;
#X connect 4 0 5 1;
#X connect 5 0 3 0;
#X connect 7 0 6 1;
#X connect 8 0 6 0;
#X connect 9 0 7 0;
#X connect 9 0 11 0;
#X connect 10 0 9 0;
#X connect 11 0 9 1;
#X connect 12 0 3 1;
#X connect 13 0 9 0;
#X connect 14 0 15 0;
#X connect 15 0 12 0;
#X connect 15 1 18 0;
#X connect 16 0 17 0;
#X connect 17 0 3 1;
#X connect 18 0 16 0;
#X restore -37 -4 pd INDIAN;
#X obj 116 -45 * 9;
#X obj 66 -30 * 42;
#N canvas 403 99 592 612 just_scale-2 0;
#X obj 230 532 1 28/27 14/13 10/9 7/6 6/5 5/4 9/7 4/3 7/5 10/7 3/2
14/9 8/5 5/3 12/7 9/5 13/7 27/14;
#X obj 102 549 outlet;
#X obj 116 32 inlet;
#X obj 164 388 * 1;
#X obj 84 294 f 33;
#X obj 126 222 r f0;
#X obj 116 64 t b f;
#X text 264 438 just intonation (Galilei);
#X obj 282 457 1 9/8 5/4 4/3 3/2 5/3 15/8 2;
#X text 580 534 all harmonics;
#X obj 238 202 int;
#X floatatom 141 276 5 0 0 0 - - -;
#X obj 319 385 tabread just_intonation_scale;
#X floatatom 310 338 5 0 0 0 - - -;
#X floatatom 321 415 12 0 0 0 - - -;
#X obj 171 110 * 19;
#X obj 237 288 tabread just_intonation_scale-2;
#X connect 2 0 6 0;
#X connect 3 0 1 0;
#X connect 4 0 3 0;
#X connect 5 0 4 1;
#X connect 5 0 11 0;
#X connect 6 0 4 0;
#X connect 6 1 15 0;
#X connect 10 0 16 0;
#X connect 12 0 14 0;
#X connect 13 0 12 0;
#X connect 15 0 10 0;
#X connect 16 0 3 1;
#X restore 426 139 pd just_scale-2;
#N canvas 403 99 592 612 just_scale-3 0;
#X obj 230 532 1 28/27 14/13 10/9 7/6 6/5 5/4 9/7 4/3 7/5 10/7 3/2
14/9 8/5 5/3 12/7 9/5 13/7 27/14;
#X obj 102 549 outlet;
#X obj 116 32 inlet;
#X obj 164 388 * 1;
#X obj 84 294 f 33;
#X obj 126 222 r f0;
#X obj 116 64 t b f;
#X text 264 438 just intonation (Galilei);
#X obj 282 457 1 9/8 5/4 4/3 3/2 5/3 15/8 2;
#X text 580 534 all harmonics;
#X obj 238 202 int;
#X floatatom 141 276 5 0 0 0 - - -;
#X obj 319 385 tabread just_intonation_scale;
#X floatatom 310 338 5 0 0 0 - - -;
#X floatatom 321 415 12 0 0 0 - - -;
#X obj 171 110 * 12;
#X obj 237 288 tabread just_intonation_scale-3;
#X connect 2 0 6 0;
#X connect 3 0 1 0;
#X connect 4 0 3 0;
#X connect 5 0 4 1;
#X connect 5 0 11 0;
#X connect 6 0 4 0;
#X connect 6 1 15 0;
#X connect 10 0 16 0;
#X connect 12 0 14 0;
#X connect 13 0 12 0;
#X connect 15 0 10 0;
#X connect 16 0 3 1;
#X restore 536 138 pd just_scale-3;
#X obj 318 -152 print;
#X obj 45 -138 demux 0 1 2 3 4 5 6 7 8 9 10 11 12;
#N canvas 1 81 450 300 AllSpectrum 0;
#X obj 167 48 inlet;
#X obj 161 266 outlet;
#X obj 167 71 * 10000;
#X obj 167 94 + 100;
#X connect 0 0 2 0;
#X connect 2 0 3 0;
#X connect 3 0 1 0;
#X restore 561 72 pd AllSpectrum;
#X connect 0 0 6 0;
#X connect 1 0 42 1;
#X connect 2 0 15 0;
#X connect 6 0 42 0;
#X connect 7 0 19 0;
#X connect 8 0 20 0;
#X connect 9 0 5 0;
#X connect 11 0 15 0;
#X connect 12 0 21 0;
#X connect 13 0 14 0;
#X connect 14 0 19 1;
#X connect 14 0 20 1;
#X connect 15 0 5 0;
#X connect 17 0 18 0;
#X connect 18 0 21 1;
#X connect 19 0 15 0;
#X connect 20 0 2 0;
#X connect 21 0 15 0;
#X connect 22 0 23 0;
#X connect 23 0 30 0;
#X connect 25 0 24 0;
#X connect 26 0 25 0;
#X connect 28 0 30 1;
#X connect 29 0 37 1;
#X connect 30 0 35 0;
#X connect 31 0 5 0;
#X connect 32 0 15 0;
#X connect 33 0 22 0;
#X connect 34 0 15 0;
#X connect 35 0 34 0;
#X connect 36 0 5 0;
#X connect 37 0 33 0;
#X connect 38 0 11 0;
#X connect 39 0 5 0;
#X connect 40 0 5 0;
#X connect 42 0 7 0;
#X connect 42 1 8 0;
#X connect 42 2 36 0;
#X connect 42 3 38 0;
#X connect 42 4 37 0;
#X connect 42 5 32 0;
#X connect 42 6 9 0;
#X connect 42 7 31 0;
#X connect 42 8 12 0;
#X connect 42 9 39 0;
#X connect 42 10 40 0;
#X connect 42 11 43 0;
#X connect 43 0 5 0;
#X restore 208 267 pd escalas;
#X obj 698 242 f;
#X obj 698 468 *;
#X obj 698 184 t b f;
#X obj 558 211 tgl 15 0 empty functVH functVH 17 7 0 10 -262144 -1
-1 1 1;
#X obj 725 283 int;
#X obj 725 344 tabread functionVH;
#X obj 519 239 mux 0 1;
#X obj 208 217 t f f;
#X obj 519 113 t f f;
#X obj 244 196 expr 1 - $f1;
#X obj 208 173 demux;
#X obj 235 149 tgl 15 0 empty invertHue invert_H -9 -7 0 10 -262144
-1 -1 1 1;
#X obj 740 400 r FuncMulti;
#N canvas 605 81 687 649 shiftH 0;
#X obj 70 67 inlet;
#X text 109 65 real H;
#X obj 131 279 moses;
#X floatatom 424 137 10 0 0 2 shift_value - -;
#X obj 94 96 hsl 300 15 0 1 0 0 empty empty empty -2 -8 0 10 -262144
-1 -1 8721 1;
#X floatatom 86 119 15 0 0 0 - - -;
#X obj 131 472 hsl 300 15 0 1 0 0 empty empty empty -2 -8 0 10 -262144
-1 -1 10575 1;
#X floatatom 128 497 12 0 0 0 - - -;
#X obj 394 222 expr 1 - $f1;
#X obj 128 563 outlet;
#X obj 424 51 inlet;
#X text 123 596 send the Hues from 0 to shift value to the top of the
scale;
#X obj 60 166 f;
#X obj 308 169 t b f f f;
#X floatatom 397 256 15 0 0 0 - - -;
#X obj 203 370 expr $f1 + $f2 - 1;
#X msg 172 231 0.943144;
#X obj 149 335 +;
#X text 496 161 set the SHIFT value HERE;
#X obj 564 30 vsl 15 128 0 1 0 0 empty empty empty 0 -9 0 10 -162280
-1 -1 0 1;
#X connect 0 0 4 0;
#X connect 0 0 12 1;
#X connect 2 0 17 0;
#X connect 2 1 15 0;
#X connect 3 0 13 0;
#X connect 4 0 5 0;
#X connect 5 0 2 0;
#X connect 6 0 7 0;
#X connect 7 0 9 0;
#X connect 8 0 14 0;
#X connect 8 0 2 1;
#X connect 10 0 3 0;
#X connect 12 0 2 0;
#X connect 13 0 12 0;
#X connect 13 1 17 1;
#X connect 13 2 8 0;
#X connect 13 3 15 1;
#X connect 15 0 6 0;
#X connect 16 0 2 1;
#X connect 17 0 6 0;
#X connect 19 0 3 0;
#X restore 208 103 pd shiftH;
#X obj 179 66 r color_shift;
#X obj 698 497 s VH-\$0;
#X obj 538 185 r VH-\$0;
#X obj 143 509 xfade~;
#X obj 412 117 r WhiteTreshold;
#X obj 376 265 *;
#X obj 377 230 swap;
#X obj 377 160 max 0.2;
#X obj 377 186 - 0.2;
#X obj 725 373 max 0;
#X obj 725 426 * 1;
#X obj 725 247 * 255;
#X obj 725 309 expr 255 - $f1;
#N canvas 66 398 450 300 VOICES 0;
#X obj 320 18 inlet~;
#X obj 51 252 outlet~;
#X obj 148 255 outlet~;
#N canvas 1 137 450 300 Voice-1 0;
#X obj 82 240 outlet~;
#X obj 171 241 outlet~;
#X obj 81 158 osc~;
#X obj 170 161 bl-saw.mmb~;
#X obj 288 177 switch~;
#X obj 288 85 r VoiceType;
#X obj 288 120 == 0;
#X obj 107 73 inlet~;
#X connect 2 0 0 0;
#X connect 3 0 1 0;
#X connect 5 0 6 0;
#X connect 6 0 4 0;
#X connect 7 0 3 0;
#X connect 7 0 2 0;
#X restore 20 121 pd Voice-1;
#N canvas 140 99 1166 533 Voice-2 0;
#X obj 181 405 outlet~;
#X obj 769 474 outlet~;
#X obj 60 97 osc~;
#X floatatom 97 94 5 0 0 0 - - -;
#X obj 175 115 osc~;
#X floatatom 212 112 5 0 0 0 - - -;
#X obj 61 139 *~ 0.32;
#X obj 272 120 osc~;
#X floatatom 318 126 10 0 0 0 - - -;
#X obj 176 157 *~ 0.089;
#X obj 273 162 *~ 0.015;
#X obj 418 122 osc~;
#X floatatom 475 117 10 0 0 0 - - -;
#X obj 419 164 *~ 0.0098;
#X obj 574 119 osc~;
#X floatatom 631 114 10 0 0 0 - - -;
#X obj 575 161 *~ 0.00149;
#X obj 713 143 osc~;
#X floatatom 770 138 10 0 0 0 - - -;
#X obj 714 185 *~ 0.006;
#X obj 847 148 osc~;
#X floatatom 904 143 10 0 0 0 - - -;
#X obj 1004 163 osc~;
#X floatatom 1061 158 10 0 0 0 - - -;
#X obj 1005 205 *~ 0.00195;
#X obj 848 190 *~ 0.0024;
#X obj 763 439 lop~ 17000;
#X obj 761 410 hip~ 20;
#X floatatom 474 36 5 0 0 0 - - -;
#X floatatom 364 30 5 0 0 0 - - -;
#X obj 763 368 +~;
#X obj 179 276 s~ \$0-freq;
#X obj 61 34 r~ \$0-freq;
#X obj 175 40 r~ \$0-freq;
#X obj 272 43 r~ \$0-freq;
#X obj 420 34 r~ \$0-freq;
#X obj 564 16 r~ \$0-freq;
#X obj 716 47 r~ \$0-freq;
#X obj 848 61 r~ \$0-freq;
#X obj 998 65 r~ \$0-freq;
#X obj 175 66 *~ 2;
#X obj 274 71 *~ 3;
#X obj 420 61 *~ 4;
#X obj 562 44 *~ 5;
#X obj 716 74 *~ 6;
#X obj 848 88 *~ 9;
#X obj 998 93 *~ 11;
#X obj 181 234 inlet~;
#X obj 374 383 switch~;
#X obj 366 301 r VoiceType;
#X obj 366 336 == 1;
#X obj 184 369 osc~;
#X obj 180 329 r~ \$0-freq;
#X connect 2 0 6 0;
#X connect 3 0 6 1;
#X connect 4 0 9 0;
#X connect 5 0 9 1;
#X connect 6 0 30 0;
#X connect 7 0 10 0;
#X connect 8 0 10 1;
#X connect 9 0 30 0;
#X connect 10 0 30 0;
#X connect 11 0 13 0;
#X connect 12 0 13 1;
#X connect 13 0 30 0;
#X connect 14 0 16 0;
#X connect 15 0 16 1;
#X connect 16 0 30 0;
#X connect 17 0 19 0;
#X connect 18 0 19 1;
#X connect 19 0 30 0;
#X connect 20 0 25 0;
#X connect 21 0 25 1;
#X connect 22 0 24 0;
#X connect 23 0 24 1;
#X connect 24 0 30 0;
#X connect 25 0 30 0;
#X connect 26 0 1 0;
#X connect 27 0 26 0;
#X connect 28 0 42 1;
#X connect 29 0 42 0;
#X connect 30 0 27 0;
#X connect 32 0 2 0;
#X connect 33 0 40 0;
#X connect 34 0 41 0;
#X connect 35 0 42 0;
#X connect 36 0 43 0;
#X connect 37 0 44 0;
#X connect 38 0 45 0;
#X connect 39 0 46 0;
#X connect 40 0 4 0;
#X connect 41 0 7 0;
#X connect 42 0 11 0;
#X connect 43 0 14 0;
#X connect 44 0 17 0;
#X connect 45 0 20 0;
#X connect 46 0 22 0;
#X connect 47 0 31 0;
#X connect 49 0 50 0;
#X connect 50 0 48 0;
#X connect 51 0 0 0;
#X connect 52 0 51 0;
#X restore 100 119 pd Voice-2;
#N canvas 88 81 904 644 Voice-3 0;
#X obj 441 574 outlet~;
#X obj 469 -33 inlet~;
#X obj 86 445 switch~;
#X obj 78 363 r VoiceType;
#X obj 78 398 == 2;
#X obj 468 109 osc~;
#X obj 467 444 *~;
#X obj 622 84 noise~;
#X obj 625 434 *~;
#X obj 623 172 hip~ 100;
#X floatatom 645 199 5 0 0 0 - - -;
#X obj 667 78 *~ 3;
#X obj 668 105 +~ 1;
#X obj 493 406 lop~ 5;
#X obj 493 378 sig~;
#X obj 655 402 lop~ 5;
#X obj 655 374 sig~;
#X obj 666 57 lop~ 5;
#X obj 667 34 sig~;
#X obj 661 252 r V3-NoiseVol;
#X obj 624 287 *~ 1;
#X obj 493 322 r \$1_saturation+;
#X obj 655 318 r \$1_saturation-;
#X obj 667 8 r \$1_saturation+;
#X obj 623 129 bob~;
#X connect 1 0 5 0;
#X connect 1 0 24 1;
#X connect 3 0 4 0;
#X connect 4 0 2 0;
#X connect 5 0 6 0;
#X connect 6 0 0 0;
#X connect 7 0 24 0;
#X connect 8 0 0 0;
#X connect 9 0 20 0;
#X connect 10 0 20 1;
#X connect 11 0 12 0;
#X connect 12 0 24 2;
#X connect 13 0 6 1;
#X connect 14 0 13 0;
#X connect 15 0 8 1;
#X connect 16 0 15 0;
#X connect 17 0 11 0;
#X connect 18 0 17 0;
#X connect 19 0 20 1;
#X connect 20 0 8 0;
#X connect 21 0 14 0;
#X connect 22 0 16 0;
#X connect 23 0 18 0;
#X connect 24 0 9 0;
#X restore 209 123 pd Voice-3;
#X obj 242 256 outlet~;
#N canvas 1 137 728 428 Voice-4 0;
#X obj 172 264 outlet~;
#X obj 414 209 switch~;
#X obj 414 117 r VoiceType;
#X obj 105 42 inlet~;
#X obj 414 152 == 3;
#X obj 178 137 *~;
#X obj 178 185 +~;
#X obj 178 217 osc~;
#X obj 179 103 osc~;
#X obj 277 103 lop~ 5;
#X obj 278 80 sig~;
#X obj 278 54 r \$1_saturation+;
#X obj 277 126 *~ 1000;
#X connect 2 0 4 0;
#X connect 3 0 8 0;
#X connect 3 0 6 1;
#X connect 4 0 1 0;
#X connect 5 0 6 0;
#X connect 6 0 7 0;
#X connect 7 0 0 0;
#X connect 8 0 5 0;
#X connect 9 0 12 0;
#X connect 10 0 9 0;
#X connect 11 0 10 0;
#X connect 12 0 5 1;
#X restore 292 127 pd Voice-4;
#N canvas 1 137 1071 566 Voice-5 0;
#X obj 453 442 outlet~;
#X obj 749 230 switch~;
#X obj 749 138 r VoiceType;
#X obj 437 71 inlet~;
#X obj 602 173 r \$1_saturation+;
#X obj 749 173 == 4;
#X obj 454 252 phasor~;
#X obj 546 241 *~;
#X obj 512 316 +~;
#X obj 512 373 cos~;
#X obj 526 111 r FM-ModFreq;
#X obj 602 196 lop~ 5;
#X obj 602 219 *~ 2;
#X obj 517 199 osc~ 93;
#X obj 503 156 *~;
#X connect 2 0 5 0;
#X connect 3 0 14 0;
#X connect 3 0 6 0;
#X connect 4 0 11 0;
#X connect 5 0 1 0;
#X connect 6 0 8 0;
#X connect 7 0 8 1;
#X connect 8 0 9 0;
#X connect 9 0 0 0;
#X connect 10 0 14 1;
#X connect 11 0 12 0;
#X connect 12 0 7 1;
#X connect 13 0 7 0;
#X connect 14 0 13 0;
#X restore 365 129 pd Voice-5;
#X connect 0 0 3 0;
#X connect 0 0 4 0;
#X connect 0 0 5 0;
#X connect 0 0 7 0;
#X connect 0 0 8 0;
#X connect 3 0 1 0;
#X connect 3 1 2 0;
#X connect 4 0 1 0;
#X connect 4 1 2 0;
#X connect 5 0 6 0;
#X connect 7 0 6 0;
#X connect 8 0 6 0;
#X restore 209 404 pd VOICES;
#X obj 235 244 s \$0-HueCooked;
#X obj 698 160 r \$0-HueCooked;
#X obj 327 115 t f f f f;
#X obj 345 394 s \$1_saturation-;
#X obj 361 329 s \$1_saturation+;
#X obj 366 87 s \$1-Value;
#X obj 399 204 r \$1-Value;
#X obj 376 293 s \$1_saturation-Clipped;
#X obj 519 89 r \$1_saturation-Clipped;
#N canvas 173 81 378 637 GrayMode 0;
#X obj 128 544 outlet~;
#X obj 125 296 *~;
#X obj 142 225 line~;
#X obj 206 188 phasor~;
#X obj 206 139 r f0;
#X obj 89 95 noise~;
#X obj 88 119 hip~ 20;
#X obj 87 143 lop~ 1000;
#X obj 88 167 lop~ 700;
#X obj 206 163 / 2;
#X obj 70 308 r Gmode;
#X obj 83 356 multiplex~ . . . .;
#X msg 142 199 \$1 5;
#X obj 207 216 hip~ 20;
#X obj 205 239 lop~ 1000;
#X obj 205 260 lop~ 700;
#X obj 274 276 pow 8;
#X obj 259 336 line~;
#X msg 259 310 \$1 5;
#X obj 216 324 *~;
#X obj 267 86 r \$1_saturation-;
#X obj 180 51 expr 1 -$f1;
#X obj 179 21 r \$1_saturation-Clipped;
#X obj 82 380 *~ 0.5;
#X obj 28 356 switch~;
#X obj 28 265 loadbang;
#X msg 28 289 0;
#X obj 145 405 sig~;
#X obj 146 428 lop~ 2;
#X obj 130 451 *~;
#X obj 145 379 r \$1-Value;
#X obj 129 500 *~;
#X obj 144 467 r startstop;
#X obj 89 269 *~ 0.21;
#X connect 1 0 11 1;
#X connect 1 0 11 3;
#X connect 2 0 1 1;
#X connect 3 0 13 0;
#X connect 4 0 9 0;
#X connect 5 0 6 0;
#X connect 6 0 7 0;
#X connect 7 0 8 0;
#X connect 8 0 33 0;
#X connect 9 0 3 0;
#X connect 10 0 11 0;
#X connect 10 0 24 0;
#X connect 11 0 23 0;
#X connect 12 0 2 0;
#X connect 13 0 14 0;
#X connect 14 0 15 0;
#X connect 15 0 19 0;
#X connect 16 0 18 0;
#X connect 17 0 19 1;
#X connect 18 0 17 0;
#X connect 19 0 11 3;
#X connect 19 0 11 2;
#X connect 21 0 12 0;
#X connect 21 0 16 0;
#X connect 22 0 21 0;
#X connect 23 0 29 0;
#X connect 25 0 26 0;
#X connect 26 0 24 0;
#X connect 27 0 28 0;
#X connect 28 0 29 1;
#X connect 29 0 31 0;
#X connect 30 0 27 0;
#X connect 31 0 0 0;
#X connect 32 0 31 1;
#X connect 33 0 1 0;
#X restore 65 481 pd GrayMode;
#X obj 209 326 sig~;
#X text 491 34 \$1_saturation-Clipped is to clip the general volume
\; \; based on the saturation threshod. basically it is to silence
the grays;
#X msg 519 476 0;
#X obj 519 261 t b a b;
#X msg 558 387 stop;
#X obj 208 361 lop~ 5;
#X obj 326 445 lop~ 5;
#X obj 549 505 lop~ 5;
#X obj 326 421 pow 8;
#X connect 0 0 1 0;
#X connect 1 0 26 0;
#X connect 1 1 43 0;
#X connect 1 2 46 0;
#X connect 3 0 44 0;
#X connect 4 0 2 0;
#X connect 5 0 53 0;
#X connect 6 0 9 0;
#X connect 7 0 5 1;
#X connect 8 0 5 0;
#X connect 9 0 10 0;
#X connect 9 1 11 0;
#X connect 10 0 8 1;
#X connect 11 0 8 1;
#X connect 12 0 51 0;
#X connect 13 0 14 0;
#X connect 14 0 28 0;
#X connect 15 0 13 0;
#X connect 15 1 38 0;
#X connect 16 0 19 2;
#X connect 17 0 39 0;
#X connect 18 0 36 0;
#X connect 19 0 54 0;
#X connect 20 0 12 0;
#X connect 20 1 41 0;
#X connect 21 0 19 0;
#X connect 21 1 13 1;
#X connect 22 0 20 0;
#X connect 23 0 20 0;
#X connect 23 1 22 0;
#X connect 24 0 23 1;
#X connect 25 0 37 1;
#X connect 26 0 23 0;
#X connect 27 0 26 1;
#X connect 29 0 19 1;
#X connect 30 0 4 0;
#X connect 31 0 34 1;
#X connect 31 0 35 1;
#X connect 32 0 48 0;
#X connect 33 0 32 0;
#X connect 33 1 32 1;
#X connect 34 0 35 0;
#X connect 35 0 33 0;
#X connect 36 0 37 0;
#X connect 37 0 14 1;
#X connect 38 0 17 0;
#X connect 39 0 18 0;
#X connect 40 0 30 0;
#X connect 40 1 30 1;
#X connect 40 2 4 0;
#X connect 42 0 15 0;
#X connect 43 0 59 0;
#X connect 43 1 3 0;
#X connect 43 2 45 0;
#X connect 43 3 34 0;
#X connect 47 0 33 1;
#X connect 49 0 21 0;
#X connect 50 0 2 0;
#X connect 51 0 56 0;
#X connect 53 0 58 0;
#X connect 54 0 8 0;
#X connect 54 1 58 0;
#X connect 54 2 55 0;
#X connect 55 0 5 0;
#X connect 56 0 40 0;
#X connect 57 0 30 2;
#X connect 58 0 4 1;
#X connect 59 0 57 0;
#X restore 37 26 pd PLAYHSV;
#X obj 57 96 \$2;
#X obj 37 124 pan~;
#X connect 0 0 4 0;
#X connect 3 0 5 0;
#X connect 4 0 5 1;
#X connect 5 0 1 0;
#X connect 5 1 2 0;
