#N canvas 124 135 918 632 10;
#X obj 290 73 / 255;
#X obj 403 73 / 255;
#X obj 509 72 / 255;
#X obj 102 148 > 0.0405;
#X obj 67 107 t f f;
#X obj 67 202 demux;
#X text 127 230 if varR > 0.0405;
#X text 62 230 else;
#X obj 98 275 expr pow(($f1 + 0.055)/1.055 \, 2.4);
#X obj 36 275 / 12.92;
#X obj 73 325 mux, f 4;
#X obj 73 354 * 100;
#X obj 405 149 > 0.0405;
#X obj 370 108 t f f;
#X obj 370 203 demux;
#X text 430 231 if varR > 0.0405;
#X text 365 231 else;
#X obj 401 276 expr pow(($f1 + 0.055)/1.055 \, 2.4);
#X obj 339 276 / 12.92;
#X obj 376 326 mux, f 4;
#X obj 376 355 * 100;
#X obj 697 149 > 0.0405;
#X obj 662 108 t f f;
#X obj 662 203 demux;
#X text 722 231 if varR > 0.0405;
#X text 657 231 else;
#X obj 693 276 expr pow(($f1 + 0.055)/1.055 \, 2.4);
#X obj 631 276 / 12.92;
#X obj 668 326 mux, f 4;
#X obj 668 355 * 100;
#X text 72 582 X \, Y \, Z;
#X text 115 353 varR;
#X text 418 356 varG;
#X obj 376 381 s varG;
#X obj 73 382 s varR;
#X obj 668 380 s varB;
#X text 706 355 varB;
#X obj 71 459 expr $f1*0.4124 + $f2*0.3576 + $f3*0.1805;
#X obj 71 484 s X;
#X obj 70 418 r varR;
#X obj 172 422 r varG;
#X obj 294 421 r varB;
#X obj 195 503 r varR;
#X obj 196 541 expr $f1*0.2126 + $f2*0.7152 + $f3*0.0722;
#X obj 560 443 r varR;
#X obj 196 566 s Y;
#X obj 560 493 s Z;
#X obj 560 468 expr $f1*0.0193 + $f2*0.1192 + $f3*0.9505;
#X obj 769 561 pack f f f;
#X obj 739 507 r X;
#X obj 823 507 r Z;
#X obj 776 506 r Y;
#X obj 294 41 inlet R;
#X obj 394 42 inlet G;
#X obj 509 41 inlet B;
#X obj 309 487 r varG;
#X obj 431 486 r varB;
#X obj 683 434 r varG;
#X obj 805 433 r varB;
#X obj 769 588 s XYZ3plet;
#X obj 130 202 s condR;
#X obj 114 301 r condR;
#X obj 725 203 s condB;
#X obj 709 302 r condB;
#X obj 433 203 s condG;
#X obj 417 302 r condG;
#X obj 101 173 t f f;
#X obj 404 174 t f f;
#X obj 695 176 t f f;
#X connect 0 0 4 0;
#X connect 1 0 13 0;
#X connect 2 0 22 0;
#X connect 3 0 66 0;
#X connect 4 0 5 0;
#X connect 4 1 3 0;
#X connect 5 0 9 0;
#X connect 5 1 8 0;
#X connect 8 0 10 1;
#X connect 9 0 10 0;
#X connect 10 0 11 0;
#X connect 11 0 34 0;
#X connect 12 0 67 0;
#X connect 13 0 14 0;
#X connect 13 1 12 0;
#X connect 14 0 18 0;
#X connect 14 1 17 0;
#X connect 17 0 19 1;
#X connect 18 0 19 0;
#X connect 19 0 20 0;
#X connect 20 0 33 0;
#X connect 21 0 68 0;
#X connect 22 0 23 0;
#X connect 22 1 21 0;
#X connect 23 0 27 0;
#X connect 23 1 26 0;
#X connect 26 0 28 1;
#X connect 27 0 28 0;
#X connect 28 0 29 0;
#X connect 29 0 35 0;
#X connect 37 0 38 0;
#X connect 39 0 37 0;
#X connect 40 0 37 1;
#X connect 41 0 37 2;
#X connect 42 0 43 0;
#X connect 43 0 45 0;
#X connect 44 0 47 0;
#X connect 47 0 46 0;
#X connect 48 0 59 0;
#X connect 49 0 48 0;
#X connect 50 0 48 2;
#X connect 51 0 48 1;
#X connect 52 0 0 0;
#X connect 53 0 1 0;
#X connect 54 0 2 0;
#X connect 55 0 43 1;
#X connect 56 0 43 2;
#X connect 57 0 47 1;
#X connect 58 0 47 2;
#X connect 61 0 10 2;
#X connect 63 0 28 2;
#X connect 65 0 19 2;
#X connect 66 0 5 1;
#X connect 66 1 60 0;
#X connect 67 0 14 1;
#X connect 67 1 64 0;
#X connect 68 0 23 1;
#X connect 68 1 62 0;
