#N canvas 804 172 450 300 10;
#X obj 176 157 r CIE-u;
#X obj 300 157 r CIE-v;
#X obj 30 157 r CIE-L;
#X obj 29 187 nbx 10 14 -1e+37 1e+37 0 0 empty empty empty 0 -8 0 10
-262144 -1 -1 5.90844 256;
#X obj 299 184 nbx 10 14 -1e+37 1e+37 0 0 empty empty empty 0 -8 0
10 -262144 -1 -1 -0.698006 256;
#X obj 176 186 nbx 10 14 -1e+37 1e+37 0 0 empty empty empty 0 -8 0
10 -262144 -1 -1 3.10503 256;
#X obj 173 115 XYZ2CIELuv;
#X obj 173 85 rgb2XYZ;
#X obj 60 40 nbx 5 14 -1e+37 1e+37 0 0 empty empty empty 0 -8 0 10
-262144 -1 -1 27 256;
#X obj 173 37 nbx 5 14 -1e+37 1e+37 0 0 empty empty empty 0 -8 0 10
-262144 -1 -1 16 256;
#X obj 277 38 nbx 5 14 -1e+37 1e+37 0 0 empty empty empty 0 -8 0 10
-262144 -1 -1 20 256;
#X obj 148 19 bng 15 250 50 0 empty empty empty 17 7 0 10 -262144 -1
-1;
#X obj 45 22 bng 15 250 50 0 empty empty empty 17 7 0 10 -262144 -1
-1;
#X obj 299 87 r X;
#X obj 383 87 r Z;
#X obj 336 86 r Y;
#X floatatom 302 109 5 0 0 0 - - -, f 5;
#X floatatom 343 112 5 0 0 0 - - -, f 5;
#X floatatom 386 115 5 0 0 0 - - -, f 5;
#X obj 268 10 bng 15 250 50 0 empty empty empty 17 7 0 10 -262144 -1
-1;
#X connect 0 0 5 0;
#X connect 1 0 4 0;
#X connect 2 0 3 0;
#X connect 7 0 6 0;
#X connect 8 0 7 0;
#X connect 9 0 7 1;
#X connect 10 0 7 2;
#X connect 11 0 9 0;
#X connect 12 0 8 0;
#X connect 13 0 16 0;
#X connect 14 0 18 0;
#X connect 15 0 17 0;
#X connect 19 0 10 0;
