#N canvas 789 226 497 509 10;
#X obj 176 157 r CIE-u;
#X obj 300 157 r CIE-v;
#X obj 30 157 r CIE-L;
#X obj 29 187 nbx 10 14 -1e+37 1e+37 0 0 empty empty empty 0 -8 0 10
-262144 -1 -1 0.0582905 256;
#X obj 299 184 nbx 10 14 -1e+37 1e+37 0 0 empty empty empty 0 -8 0
10 -262144 -1 -1 0.0412936 256;
#X obj 176 186 nbx 10 14 -1e+37 1e+37 0 0 empty empty empty 0 -8 0
10 -262144 -1 -1 0.192039 256;
#X obj 174 128 XYZ2CIELuv;
#X obj 174 98 rgb2XYZ;
#X obj 60 40 nbx 5 14 -1e+37 1e+37 0 0 empty empty empty 0 -8 0 10
-262144 -1 -1 1 256;
#X obj 173 37 nbx 5 14 -1e+37 1e+37 0 0 empty empty empty 0 -8 0 10
-262144 -1 -1 0 256;
#X obj 277 38 nbx 5 14 -1e+37 1e+37 0 0 empty empty empty 0 -8 0 10
-262144 -1 -1 0 256;
#X obj 299 87 r X;
#X obj 383 87 r Z;
#X obj 336 86 r Y;
#X floatatom 302 109 5 0 0 0 - - -, f 5;
#X floatatom 343 112 5 0 0 0 - - -, f 5;
#X floatatom 386 115 5 0 0 0 - - -, f 5;
#X obj 173 230 expr sqrt( ($f1*$f1) + ($f2*$f2) );
#X text 395 231 C*uv;
#X obj 191 377 expr atan2($f1 \, $f2);
#X obj 193 342 r CIE-u;
#X obj 271 344 r CIE-v;
#X text 323 377 H*uv;
#X obj 175 278 s CIE-Chv;
#X obj 191 410 s CIE-Huv;
#X floatatom 135 345 5 0 0 0 - - -, f 5;
#X obj 71 305 nbx 10 14 -1e+37 1e+37 0 0 empty empty empty 0 -8 0 10
-262144 -1 -1 0.192039 256;
#X obj 68 419 nbx 10 14 -1e+37 1e+37 0 0 empty empty empty 0 -8 0 10
-262144 -1 -1 0.211803 256;
#X obj 115 15 t b b b;
#X obj 96 -6 bng 15 250 50 0 empty empty empty 17 7 0 10 -262144 -1
-1;
#X connect 0 0 5 0;
#X connect 1 0 4 0;
#X connect 2 0 3 0;
#X connect 4 0 17 1;
#X connect 5 0 17 0;
#X connect 7 0 6 0;
#X connect 8 0 7 0;
#X connect 9 0 7 1;
#X connect 10 0 7 2;
#X connect 11 0 14 0;
#X connect 12 0 16 0;
#X connect 13 0 15 0;
#X connect 17 0 23 0;
#X connect 17 0 26 0;
#X connect 19 0 24 0;
#X connect 19 0 27 0;
#X connect 20 0 19 1;
#X connect 21 0 19 0;
#X connect 28 0 8 0;
#X connect 28 1 9 0;
#X connect 28 2 10 0;
#X connect 29 0 28 0;
