#N canvas 807 195 528 377 10;
#X obj 208 5 cnv 15 80 80 empty empty empty 20 12 0 14 -195568 -66577
0;
#X obj 221 23 tgl 50 0 startstop empty start/stop -5 -9 0 10 -4034
-1 -1 1 1;
#X obj 10 4 cnv 15 190 360 empty empty IMAGE 70 12 0 14 -203904 -66577
0;
#X obj 22 30 tgl 50 0 onoffgemwin empty on/off_video 60 7 0 10 -4032
-1 -1 0 1;
#X obj 26 281 vradio 15 1 0 4 device device-set device 0 -8 0 10 -262144
-1 -1 1;
#X obj 83 104 bng 30 250 50 0 open_still_img empty load 3 15 0 10 -232576
-1 -1;
#X obj 20 106 vradio 30 1 0 4 vidORstill vidORstill_init input 0 -10
0 10 -4160 -1 -1 1;
#X obj 364 4 cnv 15 150 360 empty empty SOUND 70 12 0 14 -261234 -66577
0;
#X obj 371 34 tgl 50 0 state stateGUI on/off_sound 60 7 0 10 -260097
-1 -1 1 1;
#X obj 372 286 tgl 30 0 save_sound empty save_sound 32 7 0 10 -258113
-1 -1 0 1;
#X obj 372 326 tgl 30 1 PerformanceMode empty keyboard_control 35 10
0 10 -191407 -1 -1 0 1;
#X obj 82 167 bng 30 250 50 0 open_video empty load 3 15 0 10 -232576
-1 -1;
#X obj 121 155 tgl 15 0 PausePlay_stored_vid empty vid-play 18 7 0
10 -4034 -1 -1 0 1;
#X obj 298 11 tgl 30 0 conn empty on/off_OSC 0 38 0 10 -257985 -1 -1
1 1;
#X obj 119 185 nbx 5 15 0 999999 0 1 frames_speed empty frames_speed
0 -8 0 10 -262144 -1 -1 80 256;
#X obj 207 99 cnv 15 120 260 empty empty SCAN/LOOP 20 12 0 14 -228856
-66577 0;
#X obj 259 146 tgl 30 0 scango scango-set on/off 0 40 0 10 -232576
-1 -1 1 1;
#X obj 259 204 vsl 30 128 1 0 0 0 man_scan empty empty 0 -9 0 20 -232576
-1 -1 0 1;
#X text 256 335 manual;
#X obj 219 141 vradio 15 1 0 13 scanspeed scanspeed-set empty 0 -8
0 10 -203904 -1 -1 20;
#X text 215 126 fast;
#X text 217 337 slow;
#X text 54 173 vid;
#N canvas 70 205 145 185 plylst 0;
#X obj 47 28 bng 50 250 50 0 empty empty bang_playlist -16 -10 0 10
-45076 -1 -1;
#X obj 48 91 f;
#X obj 82 92 + 1;
#X floatatom 48 115 5 0 0 0 image - -;
#X obj 18 63 bng 15 250 50 0 empty empty empty 17 7 0 10 -262144 -1
-1;
#X msg 18 90 0;
#X obj 48 135 s imgN;
#X connect 0 0 1 0;
#X connect 1 0 2 0;
#X connect 1 0 3 0;
#X connect 2 0 1 1;
#X connect 3 0 6 0;
#X connect 4 0 5 0;
#X connect 5 0 1 0;
#X restore 126 105 pd plylst;
#X text 53 114 img;
#X text 54 143 cam;
#X text 47 280 pc cam;
#X text 46 295 extra cam;
#X text 46 310 extra cam1;
#X text 46 325 extra cam2;
#N canvas 460 315 817 311 PreSet 0;
#X text 144 211 aquarius;
#X text 142 130 scream;
#X text 141 49 bold;
#X msg 35 207 \; f0-set 30.3 \; scale-set 8 \; VoiceType-set 2 \; scanspeed-set
6 \;;
#X msg 28 23 \; f0-set 33.3 \; scale-set 7 \; VoiceType-set 0 \; scanspeed-set
5 \;;
#X msg 29 106 \; f0-set 52.3 \; scale-set 2 \; VoiceType-set 1 \; scanspeed-set
7 \;;
#X floatatom 455 55 5 0 0 0 - - -;
#X floatatom 512 52 5 0 0 0 - - -;
#X obj 513 71 t b f;
#X msg 558 196 \; f0-set \$1 \; scale-set \$2 \; VoiceType-set \$3
\; scanspeed-set \$4 \;;
#X obj 550 159 pack f f f f;
#X floatatom 593 50 5 0 0 0 - - -;
#X obj 594 69 t b f;
#X floatatom 673 52 5 0 0 0 - - -;
#X obj 674 71 t b f;
#X text 679 221 custom;
#X text 455 35 f0;
#X text 587 31 voice 0-2;
#X text 505 29 scale 0-8;
#X text 660 32 scanspeed >0;
#X text 341 171 church;
#X msg 227 145 \; f0-set 21.3 \; scale-set 4 \; VoiceType-set 1 \;
scanspeed-set 29 \; SustTime_set 200 \;;
#X text 329 57 freak;
#X msg 216 31 \; f0-set 33.3 \; scale-set 1 \; VoiceType-set 0 \; scanspeed-set
3 \;;
#X connect 6 0 10 0;
#X connect 7 0 8 0;
#X connect 8 0 10 0;
#X connect 8 1 10 1;
#X connect 10 0 9 0;
#X connect 11 0 12 0;
#X connect 12 0 10 0;
#X connect 12 1 10 2;
#X connect 13 0 14 0;
#X connect 14 0 10 0;
#X connect 14 1 10 3;
#X restore 371 148 pd PreSet;
#N canvas 343 124 781 561 ADVANCED 0;
#X obj 140 174 vradio 25 1 0 4 Gmode GmodeGUI Gray_Mode -2 -8 0 10
-99865 -1 -1 1;
#X text 172 201 white_noise;
#X text 172 253 both;
#X obj 331 23 vradio 23 1 1 12 scale scale-set Escalas 0 -8 0 10 -257985
-1 -1 10;
#X text 357 165 pentatonic M;
#X text 356 211 2 octaves continuos;
#X text 356 120 scale of perfect 4ths;
#X text 357 95 26/2000Hz;
#X text 357 189 just intonation (2 octaves);
#X obj 139 81 tgl 30 0 invertH empty invert_Hue 35 7 0 10 -86277 -1
-1 0 1;
#X obj 139 123 tgl 30 0 functVH empty Vol-Hue_function 35 7 0 10 -86853
-1 -1 0 1;
#X obj 144 361 hsl 100 15 0 880 0 0 f0 f0_init empty -2 -8 0 10 -260097
-1 -1 1237 1;
#X floatatom 141 383 10 0 0 0 - - -;
#X obj 251 362 bng 15 250 50 1 reset_f0 empty reset_f0 17 7 0 10 -262144
-1 -1;
#X obj 143 419 hsl 101 15 0 1000 0 1 SustTime SustTime_set SustainTime
-2 -8 0 10 -261682 -1 -1 5000 1;
#X floatatom 140 440 10 0 0 0 - - -;
#X obj 258 420 tgl 15 0 SustOnOff SustOnOff_init Hold 0 -10 0 10 -261682
-1 -1 1 1;
#X obj 256 439 bng 15 250 50 0 SustTimeReset empty reset 17 7 0 10
-262144 -1 -1;
#X obj 145 291 hsl 128 15 0 1 0 1 color_shift color_shift-r color_shift_value
-2 -8 0 10 -204800 -1 -1 190 1;
#X obj 19 21 tgl 30 0 play_mov play_movGUI play_mov 32 7 0 10 -232576
-1 -1 0 1;
#X obj 17 253 vradio 15 1 0 2 color_space empty color_space 0 -8 0
10 -262144 -1 -1 0;
#X text 38 251 RGBA;
#X text 36 266 Gray;
#X obj 15 340 cnv 15 100 100 empty empty empty 20 12 0 14 -261234 -66577
0;
#X floatatom 18 417 4 0 0 1 width info_width -;
#X floatatom 18 393 4 0 0 1 height info_height -;
#X floatatom 19 370 4 0 0 1 bytes/pixel info_bytes -;
#X floatatom 18 348 5 0 0 1 colorspace info_colorspace -;
#X obj 18 131 bng 20 250 50 0 reset_scan empty reset_scan 23 7 0 10
-159808 -1 -1;
#X obj 19 58 tgl 30 0 viewMode viewModeGUI view_mode 32 7 0 10 -232576
-1 -1 1 1;
#N canvas 0 50 450 300 (subpatch) 0;
#X array View-H 45 float 3;
#A 0 0.166667 0.206349 0.233333 0.27381 0.25 0.277778 0.322222 0.313726
0.333333 0.358974 0.392857 0.401961 0.490741 0.552632 0.489583 0.566667
0.490196 0.520833 0.520833 0.222222 0.227273 0.166667 0.166667 0.151515
0.153846 0.0263158 0.940397 0.942982 0.93994 0.0763889 0.0462963 0.787356
0.777778 0.10119 0.0902778 0.102151 0.122549 0.0989583 0.117284 0.242424
0.233333 0.198413 0.19697 0.166667 0.181818;
#X coords 0 1 45 0 150 60 1 0 0;
#X restore 391 333 graph;
#N canvas 0 50 450 300 (subpatch) 0;
#X array View-S 45 float 3;
#A 0 0.0967742 0.0954545 0.0900901 0.0630631 0.0892857 0.0666667 0.0666667
0.0755555 0.0533333 0.0575221 0.0622222 0.0745614 0.0786026 0.0815451
0.0701754 0.0851064 0.0742358 0.069869 0.105727 0.0904523 0.0569948
0.0833333 0.0729167 0.0572917 0.0680628 0.0959596 0.592157 0.596078
0.466387 0.122449 0.0927835 0.177914 0.246835 0.145833 0.125654 0.161458
0.17801 0.165803 0.143617 0.100457 0.0896861 0.0945946 0.0986547 0.118182
0.1;
#X coords 0 1 45 0 150 60 1 0 0;
#X restore 391 411 graph;
#N canvas 0 50 450 300 (subpatch) 0;
#X array View-V 45 float 3;
#A 0 0.85098 0.862745 0.870588 0.870588 0.878431 0.882353 0.882353
0.882353 0.882353 0.886275 0.882353 0.894118 0.898039 0.913725 0.894118
0.921569 0.898039 0.898039 0.890196 0.780392 0.756863 0.752941 0.752941
0.752941 0.74902 0.776471 1 1 0.933333 0.768627 0.760784 0.639216 0.619608
0.752941 0.74902 0.752941 0.74902 0.756863 0.737255 0.858824 0.87451
0.870588 0.87451 0.862745 0.862745;
#X coords 0 1 45 0 150 60 1 0 0;
#X restore 391 489 graph;
#X obj 550 333 tgl 30 0 view_tableHSV empty view_tables -32 -10 0 10
-260097 -1 -1 0 1;
#X text 357 142 2 octaves chromatic;
#N canvas 121 125 535 537 MouseData 0;
#X obj 214 -1 cnv 15 100 60 empty empty empty 20 12 0 14 -24198 -66577
0;
#X obj 227 17 gemmouse;
#X floatatom 63 98 9 0 0 1 X-position - -;
#X floatatom 239 133 8 0 0 1 Y-position - -;
#X floatatom 252 107 2 0 0 1 left-Button - -;
#X floatatom 265 87 2 0 0 1 middle-Button - -;
#X floatatom 278 67 2 0 0 1 right-Button - -;
#X obj 239 254 - 74;
#X obj 239 280 / 351;
#X floatatom 238 308 5 0 0 0 - - -;
#X floatatom 99 279 5 0 0 0 - - -;
#X obj 100 214 - 18;
#X obj 217 200 expr $f1>74 && $f1<425;
#X obj 187 229 spigot;
#X obj 164 193 t a a;
#X obj 53 161 spigot;
#X obj 30 125 t a a;
#X obj 83 132 expr $f1>18 && $f1<484;
#X obj 100 247 / 466;
#X obj 151 401 pix_data;
#X obj 151 344 r imgResized;
#X obj 171 433 rgb2hsv;
#X floatatom 242 497 5 0 0 0 - - -;
#X floatatom 145 493 5 0 0 0 - - -;
#X floatatom 195 489 5 0 0 0 - - -;
#X obj 168 464 unpack f f f;
#X obj 70 329 t b f;
#X obj 269 340 t b f;
#X obj 257 171 bng 15 250 50 0 empty empty empty 17 7 0 10 -262144
-1 -1;
#X text 340 9 works for view mode 1 (full);
#X connect 1 0 2 0;
#X connect 1 1 3 0;
#X connect 1 2 4 0;
#X connect 1 3 5 0;
#X connect 1 4 6 0;
#X connect 2 0 16 0;
#X connect 3 0 14 0;
#X connect 4 0 28 0;
#X connect 7 0 8 0;
#X connect 8 0 9 0;
#X connect 8 0 27 0;
#X connect 11 0 18 0;
#X connect 12 0 13 1;
#X connect 13 0 7 0;
#X connect 14 0 13 0;
#X connect 14 1 12 0;
#X connect 15 0 11 0;
#X connect 16 0 15 0;
#X connect 16 1 17 0;
#X connect 17 0 15 1;
#X connect 18 0 10 0;
#X connect 18 0 26 0;
#X connect 19 1 21 0;
#X connect 20 0 19 1;
#X connect 21 0 25 0;
#X connect 25 0 23 0;
#X connect 25 1 24 0;
#X connect 25 2 22 0;
#X connect 26 0 19 0;
#X connect 26 1 19 2;
#X connect 27 0 19 0;
#X connect 27 1 19 3;
#X connect 28 0 19 0;
#X restore 17 288 pd MouseData;
#N canvas 807 307 450 300 Ref4Blind 0;
#X obj 52 18 vradio 25 1 0 10 ref_scale_send ref_scale_rec Ref_Scale
0 -8 0 10 -232576 -1 -1 6;
#X text 89 18 violet 320;
#X text 88 43 indigo 280;
#X text 86 71 slate blue 257;
#X text 83 94 sky blue 200;
#X text 86 145 green 120;
#X text 84 119 spring green 154;
#X text 85 171 chartreuse 103;
#X text 84 196 yellow 60;
#X text 83 221 orange 30;
#X text 83 245 red 0;
#X text 212 14 click on color to be played;
#X obj 236 231 tgl 30 0 tikOnOff empty tik_on/off 32 7 0 10 -261682
-1 -1 0 1;
#X text 232 208 sound cue at the start of scan;
#X restore 17 314 pd Ref4Blind;
#X floatatom 19 97 7 1 100000 3 vertical_resize steps_init steps;
#X text 357 72 Indian Scale (2 octaves);
#X obj 141 337 mtof;
#X floatatom 141 315 5 0 0 0 - f0-set -;
#X text 178 314 lowest_pitch f0 (midi);
#X text 357 25 1 octave continuous;
#X text 357 50 1 octave chromatic;
#X text 205 384 lowest_pitch f0(Hz);
#N canvas 1 261 449 118 mask 0;
#X obj 28 30 tgl 30 0 mask_on mask_onGUI mask_on 32 7 0 10 -162280
-1 -1 0 1;
#X text 133 36 eventually put mask on the image and choose betweendifferent
types of mask;
#X restore 20 445 pd mask;
#X floatatom 18 206 10 0 0 3 Scan_Time FrameScanTime -;
#X floatatom 18 169 5 0 0 0 - - -;
#X text 15 153 set scantime;
#X obj 18 186 s scanspeed-set;
#X obj 139 11 vradio 30 1 0 2 ColorMode empty empty 0 -8 0 10 -262144
-1 -1 0;
#X text 175 19 HSV;
#X text 176 48 LCH;
#X text 172 227 groundtone;
#X text 358 232 Just intonation 2 (2 octaves. 9 tones/octave);
#X text 363 256 Just intonation(1 octave. 12 tones);
#X text 367 279 100/10100Hz;
#X connect 11 0 12 0;
#X connect 14 0 15 0;
#X connect 39 0 11 0;
#X connect 40 0 39 0;
#X connect 47 0 49 0;
#X restore 371 94 pd ADVANCED;
#N canvas 62 537 265 230 STUFF 0;
#N canvas 31 190 858 495 mostralinha 0;
#X obj 166 -193 gemhead;
#X obj 127 233 translateXYZ 0 0 1;
#X obj 222 46 r posi;
#X obj 222 136 expr - $f1;
#X obj 223 115 * 2.7;
#X obj 222 90 / 479;
#X obj 273 45 r steps;
#X obj 273 71 - 1;
#X obj 128 209 separator;
#X obj 442 -77 separator;
#X floatatom 554 -70 5 0 0 0 - - -;
#X floatatom 591 -21 5 0 0 0 - - -;
#X obj 461 -7 rectangle 0.01 1.37;
#X obj 127 259 rectangle 1.8 0.011;
#X floatatom 514 -70 5 0 0 0 - - -;
#X obj 442 -40 translateXYZ 0.13 -1.37 1;
#X obj 441 -101 spigot;
#X obj 476 -126 tgl 15 0 empty empty empty 17 7 0 10 -262144 -1 -1
0 1;
#X obj 475 -151 r c_line;
#X obj 151 -149 colour 1 0 0;
#X obj -118 -37 r posi;
#X obj -118 21 / 479;
#X obj -67 -37 r steps;
#X obj -67 -14 - 1;
#X obj -198 83 separator;
#X obj -118 105 expr 1 - $f1;
#X obj 181 -114 r viewMode;
#X obj 182 -63 spigot;
#X obj 187 -89 == 0;
#X obj -198 233 translateXYZ 0 0 2;
#X floatatom -10 140 5 0 0 0 - - -;
#X obj -2 44 r viewMode;
#X obj 0 71 sel 0 1;
#X msg 24 108 2.06;
#X msg -17 105 1;
#X obj -41 -146 r viewMode;
#X obj -57 -82 spigot;
#X obj -41 -123 == 1;
#X text 495 -104 CENTRAL VERTICAL LINE;
#X obj -24 216 - 1.35;
#X floatatom 19 179 5 0 0 0 - - -;
#X obj 63 149 * 2.7;
#X obj -118 148 * 3.85;
#X obj -118 172 - 1.925;
#X obj -198 259 rectangle 4 0.005;
#X connect 0 0 16 0;
#X connect 0 0 19 0;
#X connect 1 0 13 0;
#X connect 2 0 5 0;
#X connect 3 0 1 2;
#X connect 4 0 3 0;
#X connect 5 0 4 0;
#X connect 6 0 7 0;
#X connect 7 0 5 1;
#X connect 8 0 1 0;
#X connect 9 0 15 0;
#X connect 10 0 15 2;
#X connect 11 0 12 2;
#X connect 14 0 15 1;
#X connect 15 0 12 0;
#X connect 16 0 9 0;
#X connect 17 0 16 1;
#X connect 18 0 17 0;
#X connect 19 0 27 0;
#X connect 19 0 36 0;
#X connect 20 0 21 0;
#X connect 21 0 25 0;
#X connect 22 0 23 0;
#X connect 23 0 21 1;
#X connect 24 0 29 0;
#X connect 25 0 42 0;
#X connect 26 0 28 0;
#X connect 27 0 8 0;
#X connect 28 0 27 1;
#X connect 29 0 44 0;
#X connect 30 0 29 3;
#X connect 31 0 32 0;
#X connect 32 0 34 0;
#X connect 32 1 33 0;
#X connect 33 0 30 0;
#X connect 34 0 30 0;
#X connect 35 0 37 0;
#X connect 36 0 24 0;
#X connect 37 0 36 1;
#X connect 40 0 29 2;
#X connect 42 0 43 0;
#X connect 43 0 29 2;
#X restore 18 104 pd mostralinha;
#X obj 17 43 HSV2OSC;
#N canvas 220 304 621 429 WINDOW 0;
#X obj 145 231 gemwin;
#X msg 217 148 destroy;
#X obj 164 0 r onoffgemwin;
#X obj 168 24 sel 1 0;
#X msg 273 136 \; state 0 \;;
#X obj 245 103 t b b;
#X obj 113 75 t b b;
#X msg 170 83 \; state 1 \;;
#X msg 230 210 dimen 1280 720;
#X msg 221 182 dimen 1026 768 \, border 0 \, offset 1364 0;
#X msg 194 274 dimen 1026 768;
#X obj 224 250 loadbang;
#X msg 46 184 fps 30;
#X msg 42 346 dimen 1024 768 \, fps 30 \, create \, 1;
#X msg 48 380 dimen 1025 768 \, fps 30 \, offset 1365 0 \, border 0
\, create \, 1;
#X msg -157 138 dimen 1025 768 \, fps 30 \, offset 1365 0 \, border
0 \, create \, 1;
#X connect 1 0 0 0;
#X connect 2 0 3 0;
#X connect 3 0 6 0;
#X connect 3 1 5 0;
#X connect 5 0 1 0;
#X connect 5 1 4 0;
#X connect 6 0 15 0;
#X connect 6 1 7 0;
#X connect 8 0 0 0;
#X connect 9 0 0 0;
#X connect 10 0 0 0;
#X connect 11 0 10 0;
#X connect 12 0 0 0;
#X connect 14 0 0 0;
#X connect 15 0 0 0;
#X restore 16 12 pd WINDOW;
#N canvas 399 158 396 295 EXT_CTRL 0;
#X obj 188 145 s state;
#X obj 188 122 tgl 15 0 empty empty empty 17 7 0 10 -262144 -1 -1 0
1;
#N canvas 1 140 251 247 and_ctrl 0;
#X obj 165 145 print;
#X obj 28 98 route /1/fader1 /1/push1;
#X floatatom 104 144 5 0 0 0 - - -;
#X floatatom 33 140 5 0 0 0 - - -;
#X obj 48 175 outlet;
#X obj 115 183 outlet;
#X obj 24 15 mrpeach/udpreceive 8000;
#X obj 44 51 mrpeach/unpackOSC;
#X connect 1 0 3 0;
#X connect 1 1 2 0;
#X connect 2 0 5 0;
#X connect 3 0 4 0;
#X connect 6 0 7 0;
#X connect 7 0 1 0;
#X restore 37 75 pd and_ctrl;
#X floatatom 105 110 5 0 0 0 - - -;
#X floatatom 34 106 5 0 0 0 - - -;
#X obj 37 127 * 10;
#X obj 279 36 s scanspeed;
#X obj -13 160 s scanspeed;
#X obj 275 59 s scanspeedGUI;
#X obj 73 160 s scanspeedGUI;
#X obj 104 138 s stateGUI;
#X connect 1 0 0 0;
#X connect 2 0 4 0;
#X connect 2 1 3 0;
#X connect 3 0 1 0;
#X connect 3 0 10 0;
#X connect 4 0 5 0;
#X connect 5 0 7 0;
#X connect 5 0 9 0;
#X restore 17 75 pd EXT_CTRL;
#N canvas 200 111 571 508 INIT 0;
#X obj 17 3 loadbang;
#X obj 22 337 r reset_f0;
#X obj 23 392 s f0_init;
#X obj 154 330 r SustTimeReset;
#X msg 154 357 \; SustTime_init 200 \; SustOnOff_init 0 \;;
#X msg 22 363 60;
#X obj 365 97 r conn;
#X obj 365 120 sel 1;
#X msg 19 24 \; SustTime_set 500 \; SustOnOff_init 1 \; steps_init
480 \; vidORstill_init 1 \; play_mov 0 \; end_line 1 \; img2load open
./images/nxerainbowlines2.jpg \; viewModeGUI 1 \; color_shift-r 0.015
\; scango-set 1 \; stateGUI 1 \; f0-set 45 \; scale-set 10 \; VoiceType-set
3 \; scanspeed-set 21 \; setKinectGain 4 \; device-set 1 \; GmodeGUI
1 \; device-set 1 \;;
#X connect 0 0 8 0;
#X connect 1 0 5 0;
#X connect 3 0 4 0;
#X connect 5 0 2 0;
#X connect 6 0 7 0;
#X restore 17 130 pd INIT;
#N canvas 238 81 896 653 VIDEO_MAIN 0;
#X obj 97 493 pix_texture;
#X obj 284 445 until;
#X obj 284 469 f;
#X obj 284 417 t a b;
#X obj 313 469 + 1;
#X obj 325 445 0;
#X obj 470 23 cnv 15 100 60 empty empty empty 20 12 0 14 -195568 -66577
0;
#X text 471 19 start / stop;
#X obj 495 40 tgl 30 0 empty startstop empty 17 7 0 10 -4034 -1 -1
1 1;
#X text 535 624 sends signal of end line;
#X obj 45 114 pix_buffer_write frame;
#X msg 188 78 1;
#X obj 350 46 pix_buffer frame 2;
#X obj 45 215 pix_texture;
#X floatatom 142 233 5 0 0 0 - - -;
#X obj 567 131 r end_line;
#X obj 812 221 s NewFrame;
#X obj 676 47 r NewFrame;
#X obj 567 156 spigot;
#X obj 586 422 s posi;
#X text 360 522 pix-group number;
#X obj 97 521 translateXYZ 0 -1.8 0;
#X obj 97 547 rectangle 2.4 1.8;
#X obj 45 255 translateXYZ 0 2 0;
#X obj 646 472 r scanspeed;
#N canvas 258 243 450 300 video_info 0;
#X obj 59 40 inlet;
#X obj 64 113 pix_info --------------;
#X obj 83 234 s info_width;
#X obj 102 210 s info_height;
#X obj 121 190 s info_bytes;
#X obj 141 165 s info_colorspace;
#X obj 64 260 outlet;
#X obj 166 288 s steps_init;
#X connect 0 0 1 0;
#X connect 1 0 6 0;
#X connect 1 1 2 0;
#X connect 1 2 3 0;
#X connect 1 3 4 0;
#X connect 1 4 5 0;
#X restore 45 82 pd video_info;
#X obj 539 547 delay 0.5;
#X obj 635 566 + 0.5;
#X obj 474 187 r reset_scan;
#X obj 284 604 send pix_groupN;
#X obj 647 502 pow 1.5;
#N canvas 57 167 897 597 framesIN 0;
#X obj 251 575 outlet;
#X obj 218 71 gemhead;
#X obj 210 186 cnv 15 80 30 empty empty empty 20 12 0 14 -24198 -66577
0;
#X obj 218 193 pix_video;
#N canvas 527 328 473 300 video_set 0;
#X obj 176 249 outlet;
#X msg 209 39 dimen 640 480;
#X obj 32 18 r device;
#X msg 76 109 device \$1;
#X obj 32 46 t b f b;
#X msg 83 72 \; onoffgemwin 0 \;;
#X obj 29 153 delay 500;
#X msg 29 178 \; onoffgemwin 1 \;;
#X msg 349 78 colorspace RGB;
#X msg 362 102 colorspace Grey;
#X obj 352 27 r color_space;
#X obj 352 52 sel 0 1;
#X msg 282 188 enumProps;
#X obj 248 226 r \$0-ctl;
#X connect 1 0 0 0;
#X connect 2 0 4 0;
#X connect 3 0 0 0;
#X connect 4 0 6 0;
#X connect 4 1 3 0;
#X connect 4 2 5 0;
#X connect 6 0 7 0;
#X connect 8 0 0 0;
#X connect 9 0 0 0;
#X connect 10 0 11 0;
#X connect 11 0 8 0;
#X connect 11 1 9 0;
#X connect 12 0 0 0;
#X connect 13 0 0 0;
#X restore 15 125 pd video_set;
#X obj 456 538 pix_background;
#X obj 465 457 r play_mov;
#X obj 574 422 loadbang;
#X msg 556 452 0.2;
#X floatatom 554 476 5 0 0 0 - - -;
#X obj 471 488 sel 1;
#X msg 466 514 reset;
#X floatatom 599 476 5 0 0 0 - - -;
#X msg 599 451 1;
#X obj 599 510 s vidORstill;
#X obj 279 221 print;
#X obj 271 247 s \$0-info;
#X obj 448 399 r play_mov;
#X msg 40 183 enumProps;
#X msg 19 148 set Auto White Balance 0;
#X msg 44 204 applyProps;
#X msg 46 225 set White 0;
#X obj 217 18 r vidORstill;
#X obj 217 46 == 1;
#X obj 541 261 cnv 15 80 30 empty empty empty 20 12 0 14 -24198 -66577
0;
#X msg 441 233 colorspace Grey;
#X msg 540 211 auto \$1;
#X obj 679 128 tgl 15 0 empty PausePlay_stored_vid ResetStop_stored_vid
17 7 0 10 -262144 -1 -1 1 1;
#X obj 441 186 r color_space;
#X obj 441 210 sel 1;
#X obj 678 104 loadbang;
#X floatatom 619 240 5 0 0 0 - - -;
#X obj 592 215 gemhead;
#X obj 679 196 metro 30;
#X floatatom 724 174 5 0 0 0 - - -;
#X obj 558 270 pix_film;
#X obj 573 297 unpack 0 0 0;
#X floatatom 563 320 5 0 0 3 length - -;
#X floatatom 612 320 5 0 0 3 width - -;
#X floatatom 661 324 5 0 0 3 height - -;
#X obj 679 227 counter 30;
#X obj 724 151 r frames_speed;
#X obj 738 262 bng 15 250 50 0 empty empty empty 17 7 0 10 -262144
-1 -1;
#X text 761 259 reset video;
#X obj 701 304 s steps_init;
#N canvas 589 194 450 300 OPENVIDEO 0;
#X obj 22 -437 bng 15 250 50 0 empty open_video open_video 17 7 0 10
-262144 -1 -1;
#X obj 22 -416 openpanel;
#X msg 22 -396 open \$1;
#X obj -146 -316 metro 100;
#X obj -120 -355 tgl 15 0 empty empty empty 17 7 0 10 -262144 -1 -1
0 1;
#X obj 52 -368 t b b a;
#X obj 41 -300 delay 400;
#X msg -40 -248 \; NewFrame 1 \; end_line bang \; reset_scan bang \;
;
#X obj 126 -225 outlet;
#X connect 0 0 1 0;
#X connect 1 0 2 0;
#X connect 2 0 5 0;
#X connect 4 0 3 0;
#X connect 5 0 6 0;
#X connect 5 1 7 0;
#X connect 5 2 8 0;
#X connect 6 0 7 0;
#X restore 561 133 pd OPENVIDEO;
#X obj 592 167 r vidORstill;
#X obj 592 191 == 2;
#X msg 448 269 colorspace RGB;
#X obj 575 363 s Film_Length;
#X obj 764 197 r Film_Length;
#X obj 80 507 cnv 15 80 30 empty empty empty 20 12 0 14 -24198 -66577
0;
#X msg 146 490 open \$1;
#X obj 88 511 pix_image;
#X obj 129 404 r img2load;
#X obj 80 320 r vidORstill;
#X obj 80 340 == 0;
#X obj 263 303 tgl 15 0 empty mask_on mask_on 17 7 0 10 -262144 -1
-1 0 1;
#X obj 199 334 mask_image;
#X obj 80 371 gemhead 31;
#X obj 150 456 openpanel;
#X obj 149 431 bng 15 250 50 0 empty open_still_img empty 17 7 0 10
-262144 -1 -1;
#X obj 389 435 demux 0 1;
#X msg 122 64 driver vlc;
#X msg 122 85 driver v4l2;
#X msg 331 79 clearProps \, setProps screen-fps 5 \, setProps heigth
600 \, setProps width 400 \, device screen://;
#X msg 323 132 device http://192.168.1.1:8080/video;
#X text 351 7 get stream from other computer with VLC;
#X text 322 114 get stream from android IP_webCam;
#X text 330 61 get stream from this pc desktop with VLC;
#X msg 334 28 clearProps \, setProps screen-fps 5 \, setProps heigth
800 \, setProps width 300 \, device http://192.168.1.2:8080/sonar;
#N canvas 83 213 1252 528 playlist 0;
#X obj 673 500 outlet;
#X obj -140 32 r imgN;
#X floatatom -137 55 5 0 0 0 - - -;
#X msg 183 188 open images/1_stripesH_blueyellow.jpeg;
#X msg 183 141 open images/8_stripesO_YGRO.jpeg;
#X msg 184 165 open images/9_stripesO_violetblue.jpeg;
#X msg 181 216 open images/15_stripesV_bombadas.jpeg;
#X msg 187 240 open images/16_flag_portugal.jpeg;
#X msg 198 261 open images/17_flag_italia.jpg;
#X msg 209 283 open images/18_flag_france.jpeg;
#X msg 217 307 open images/19_flag_romania.jpg;
#X msg 228 329 open images/22_Flag_of_Germany.jpg;
#X msg 231 353 open images/25_flag_brasil.jpeg;
#X msg 225 377 open images/27_Flag_United-States.jpg;
#X msg 179 115 open images/5_stripesO_redblue.jpeg;
#X msg 226 397 open images/29_flag_England.jpg;
#X msg 482 108 open images/34_traf_light_separated.jpg;
#X msg 867 252 open images/40_mandalaFibonacci.jpg;
#X msg 870 278 open images/41_JoanMiro_bluespot.jpg;
#X msg 876 300 open images/42_joan-miro.jpg;
#X msg 881 155 open images/44_quadro_girassois.jpg;
#X msg 863 109 open images/45_florAmarela.JPG;
#X msg 885 179 open images/46_landscape_planetcontour.jpeg;
#X obj -85 29 sel 0 1 2 3 4 5 6 7 8 9 10 11 12 13 14 15 16 17 18 19
20 21 22 23 24 25 26 27 28 29 30 31 32 33 34 35 36 37 38 39 40 41 42
43 44 45 46 47 48 49 50 51 52 53 54 55 56 57 58 59 60, f 187;
#X msg 884 205 open images/50_landscape_sunset_colorfull.jpg;
#X msg 888 428 open images/57_landscape_globe_atlanticocean.jpeg;
#X msg 900 399 open images/54_sun.jpg;
#X msg 909 324 open images/url.jpeg;
#X msg 908 348 open images/mondrian.jpg;
#X msg 531 250 open images/lady.jpg;
#X msg 505 178 open images/WHITE_BLONDE_BLUEYES.jpeg;
#X msg 515 226 open images/WHITE_BLONDE_BLUEYES2.jpeg;
#X msg 573 374 open images/faz_me.jpg;
#X msg 893 370 open images/mondrian_broadway.jpg;
#X msg 508 202 open images/MULATO.jpeg;
#X msg 539 287 open images/MULATA.jpeg;
#X msg 549 316 open images/BROWN_LADY.jpg;
#X msg 564 349 open images/ASIAN_LADY.jpg;
#X msg 502 157 open images/divieto_estac_bckg.jpeg;
#X msg 489 133 open images/divieto_estac.jpeg;
#X msg 876 132 open images/tree.jpg;
#X msg -199 119 open images/test/bola_middle_orange.jpg, f 40;
#X msg -203 153 open images/test/bola_middle_right_yellow.jpg, f 47
;
#X msg -195 179 open images/test/bola_up_right_red.jpg, f 39;
#X msg -200 205 open images/test/2bolas_same_col.jpg, f 37;
#X msg -172 236 open images/test/2bolas_diff_col.jpg, f 38;
#X msg -170 262 open images/test/2shapes_same_col.jpg, f 40;
#X msg -171 292 open images/test/2shapes_diff_col.jpg, f 38;
#X msg -162 321 open images/test/pink_star.jpg, f 32;
#X msg -154 355 open images/test/color_curves.jpg, f 35;
#X msg -151 389 open images/test/color_chord.jpg, f 33;
#X connect 1 0 2 0;
#X connect 1 0 23 0;
#X connect 3 0 0 0;
#X connect 4 0 0 0;
#X connect 5 0 0 0;
#X connect 6 0 0 0;
#X connect 7 0 0 0;
#X connect 8 0 0 0;
#X connect 9 0 0 0;
#X connect 10 0 0 0;
#X connect 11 0 0 0;
#X connect 12 0 0 0;
#X connect 13 0 0 0;
#X connect 14 0 0 0;
#X connect 15 0 0 0;
#X connect 16 0 0 0;
#X connect 17 0 0 0;
#X connect 18 0 0 0;
#X connect 19 0 0 0;
#X connect 20 0 0 0;
#X connect 21 0 0 0;
#X connect 22 0 0 0;
#X connect 23 0 41 0;
#X connect 23 1 42 0;
#X connect 23 2 43 0;
#X connect 23 3 44 0;
#X connect 23 4 45 0;
#X connect 23 5 46 0;
#X connect 23 6 47 0;
#X connect 23 7 48 0;
#X connect 23 8 49 0;
#X connect 23 9 50 0;
#X connect 23 10 14 0;
#X connect 23 11 4 0;
#X connect 23 12 5 0;
#X connect 23 13 3 0;
#X connect 23 14 6 0;
#X connect 23 15 7 0;
#X connect 23 16 8 0;
#X connect 23 17 9 0;
#X connect 23 18 10 0;
#X connect 23 19 11 0;
#X connect 23 20 12 0;
#X connect 23 21 13 0;
#X connect 23 22 15 0;
#X connect 23 23 16 0;
#X connect 23 24 39 0;
#X connect 23 25 38 0;
#X connect 23 26 30 0;
#X connect 23 27 34 0;
#X connect 23 28 31 0;
#X connect 23 29 29 0;
#X connect 23 30 35 0;
#X connect 23 31 36 0;
#X connect 23 32 37 0;
#X connect 23 33 32 0;
#X connect 23 34 21 0;
#X connect 23 35 40 0;
#X connect 23 36 20 0;
#X connect 23 37 22 0;
#X connect 23 38 24 0;
#X connect 23 39 17 0;
#X connect 23 40 18 0;
#X connect 23 41 19 0;
#X connect 23 42 27 0;
#X connect 23 43 28 0;
#X connect 23 44 33 0;
#X connect 23 45 26 0;
#X connect 23 46 25 0;
#X connect 24 0 0 0;
#X connect 25 0 0 0;
#X connect 26 0 0 0;
#X connect 27 0 0 0;
#X connect 28 0 0 0;
#X connect 29 0 0 0;
#X connect 30 0 0 0;
#X connect 31 0 0 0;
#X connect 32 0 0 0;
#X connect 33 0 0 0;
#X connect 34 0 0 0;
#X connect 35 0 0 0;
#X connect 36 0 0 0;
#X connect 37 0 0 0;
#X connect 38 0 0 0;
#X connect 39 0 0 0;
#X connect 40 0 0 0;
#X connect 41 0 0 0;
#X connect 42 0 0 0;
#X connect 43 0 0 0;
#X connect 44 0 0 0;
#X connect 45 0 0 0;
#X connect 46 0 0 0;
#X connect 47 0 0 0;
#X connect 48 0 0 0;
#X connect 49 0 0 0;
#X connect 50 0 0 0;
#X restore 10 454 pd playlist;
#X obj 771 368 r vidORstill;
#X obj 771 396 == 3;
#X obj 754 452 cnv 15 80 30 empty empty empty 20 12 0 14 -24198 -66577
0;
#X obj 770 457 kinect;
#X obj 336 337 pix_flip;
#X msg 348 313 horizontal;
#X obj 361 266 loadbang;
#X connect 1 0 3 0;
#X connect 3 0 58 0;
#X connect 3 0 76 0;
#X connect 3 1 15 0;
#X connect 3 1 16 0;
#X connect 4 0 3 0;
#X connect 5 0 0 0;
#X connect 6 0 10 0;
#X connect 7 0 8 0;
#X connect 7 0 13 0;
#X connect 8 0 9 0;
#X connect 9 0 5 1;
#X connect 10 0 11 0;
#X connect 11 0 5 0;
#X connect 12 0 14 0;
#X connect 13 0 12 0;
#X connect 17 0 62 1;
#X connect 18 0 3 0;
#X connect 19 0 3 0;
#X connect 20 0 3 0;
#X connect 21 0 3 0;
#X connect 22 0 23 0;
#X connect 23 0 1 0;
#X connect 25 0 35 0;
#X connect 26 0 35 0;
#X connect 27 0 33 0;
#X connect 28 0 29 0;
#X connect 29 0 25 0;
#X connect 30 0 27 0;
#X connect 31 0 35 1;
#X connect 32 0 35 0;
#X connect 33 0 40 0;
#X connect 34 0 33 1;
#X connect 35 0 62 0;
#X connect 35 1 36 0;
#X connect 36 0 37 0;
#X connect 36 0 49 0;
#X connect 36 1 38 0;
#X connect 36 2 39 0;
#X connect 36 2 44 0;
#X connect 40 0 35 1;
#X connect 41 0 34 0;
#X connect 42 0 40 3;
#X connect 45 0 35 0;
#X connect 46 0 47 0;
#X connect 47 0 32 0;
#X connect 48 0 35 0;
#X connect 52 0 53 0;
#X connect 53 0 0 0;
#X connect 54 0 53 0;
#X connect 55 0 56 0;
#X connect 56 0 59 0;
#X connect 57 0 58 1;
#X connect 59 0 53 0;
#X connect 60 0 52 0;
#X connect 61 0 60 0;
#X connect 62 0 0 0;
#X connect 62 1 5 0;
#X connect 63 0 3 0;
#X connect 64 0 3 0;
#X connect 65 0 3 0;
#X connect 66 0 3 0;
#X connect 70 0 3 0;
#X connect 71 0 53 0;
#X connect 72 0 73 0;
#X connect 73 0 75 0;
#X connect 75 0 0 0;
#X connect 76 0 62 0;
#X connect 77 0 76 0;
#X connect 78 0 77 0;
#X restore 45 4 pd framesIN;
#X obj 176 24 r bufWrite;
#X obj 97 391 r imgResized;
#N canvas 187 350 540 505 RESIZE-IT 0;
#X obj -118 266 pix_resize;
#X obj -50 168 pix_buffer_read frame;
#X obj -58 128 gemhead;
#X text -228 214 read and resize frame from buffer;
#X obj -161 102 pack f f;
#X msg -161 126 dimen \$1 \$2;
#X obj -144 -20 r steps;
#X obj 68 129 r bufRead;
#X obj -144 34 t b f;
#X obj -122 347 s imgResized;
#X obj -7 222 r CleanVid;
#X obj -144 9 change;
#X obj -242 -45 r color_space;
#X obj -242 -10 sel 0 1;
#X msg -209 27 16;
#X obj -118 304 mask_image;
#X msg -242 33 45;
#X obj -165 76 f 45;
#X connect 0 0 15 0;
#X connect 1 0 0 0;
#X connect 2 0 1 0;
#X connect 4 0 5 0;
#X connect 5 0 0 0;
#X connect 6 0 11 0;
#X connect 7 0 1 1;
#X connect 8 0 17 0;
#X connect 8 1 4 1;
#X connect 10 0 0 0;
#X connect 11 0 8 0;
#X connect 12 0 13 0;
#X connect 13 0 16 0;
#X connect 13 1 14 0;
#X connect 15 0 9 0;
#X connect 17 0 4 0;
#X restore 97 363 pd RESIZE-IT;
#X obj 283 338 r posi;
#X msg 283 368 bang;
#X obj 539 483 r pix_groupN;
#X obj 495 77 t f f;
#X obj 19 409 loadbang;
#X msg 18 430 quality 0;
#X msg 455 114 \; NewFrame \$1 \; end_line bang \;;
#X floatatom 714 563 5 0 0 0 - - -;
#X obj 762 283 timer;
#X floatatom 769 306 10 0 0 0 - - -;
#X obj 759 262 b;
#X obj 794 257 b;
#X obj 768 325 s FrameScanTime;
#X msg 539 581 \; end_line bang \; NewFrame 1 \;;
#X obj 586 330 demux;
#X obj 613 311 tgl 15 0 empty empty empty 17 7 0 10 -262144 -1 -1 0
1;
#X obj 329 573 send pix_groupN-Vert;
#X obj 308 496 send pix_groupFULL;
#X obj 613 269 r scango;
#X obj 600 398 f;
#X obj 613 369 b, f 2;
#X msg 68 186 quality \$1;
#X obj 68 165 tgl 15 0 empty empty empty 0 -6 0 8 -262144 -1 -1 0 1
;
#X obj 780 66 r posi;
#X obj 781 88 sel 0;
#X msg 782 112 1;
#X obj 782 135 s 0cross;
#X floatatom 128 287 5 0 0 0 - - -;
#X floatatom 172 284 5 0 0 0 - - -;
#X obj 141 162 loadbang;
#X msg 140 183 quality 0;
#X floatatom 722 503 5 0 0 0 - - -;
#X floatatom 694 532 5 0 0 0 - - -;
#X obj 97 465 spigot;
#X obj 130 413 r viewMode;
#X obj 130 434 == 0;
#X obj 222 128 r viewMode;
#X obj 223 179 == 0;
#X obj 222 211 * 2;
#X floatatom 220 262 5 0 0 0 - - -;
#X obj 224 155 t f f;
#X obj 264 178 == 1;
#X obj 263 210 * 1.42;
#X msg 676 79 \; bufWrite 1 \; bufRead 1 \;;
#X text 742 237 Ligar se der problemas;
#X floatatom 139 52 5 0 0 0 - - -;
#X obj 638 315 r man_scan;
#X obj 638 363 * 1;
#X obj 653 339 r steps;
#X obj 613 291 == 0;
#X msg 283 395 45;
#X obj 284 521 moses 45;
#X obj 329 548 - 45;
#X obj 539 513 sel 44;
#X text 312 388 triggers 45 pix-groups scan \; in each horizontal line
\,;
#X obj 552 232 f;
#X obj 579 232 + 1;
#X obj 547 260 sel 479;
#X msg 512 233 0;
#X obj 375 217 bng 15 250 50 0 empty empty empty 17 7 0 10 -262144
-1 -1;
#X obj 364 270 print brrr;
#X obj 373 247 repeat 5;
#X obj 476 345 print;
#X text 726 195 triggers 480 lines scan;
#X obj 794 175 counter 479;
#X obj 635 170 r steps;
#X obj 635 220 - 1;
#X obj 634 196 t b f;
#X obj 92 573 cnv 15 100 60 empty empty empty 20 12 0 14 -261234 -66577
0;
#N canvas 54 99 652 668 readPixels 0;
#X obj 64 293 pix_data;
#X text 136 289 GETS PIXELS VALUES FROM FRAME;
#X obj 174 252 expr 1 - $f1/$f2;
#X obj 267 200 r steps;
#X obj 267 225 - 1;
#X obj 79 141 r imgResized;
#X obj 189 181 r posi;
#X obj 64 18 r pix_groupN;
#X obj 282 471 unpack f f f;
#X floatatom 441 350 5 0 0 0 - - -;
#X floatatom 441 393 10 0 0 0 - - -;
#X obj 237 518 tabwrite View-H;
#X obj 460 520 tabwrite View-V;
#X obj 350 521 tabwrite View-S;
#X obj 441 371 tabread View-H;
#X obj 282 410 spigot;
#X obj 315 381 tgl 15 0 empty view_tableHSV view_tableHSV 17 7 0 10
-262144 -1 -1 0 1;
#X obj 174 210 f;
#X obj 64 94 t b f b;
#X obj 191 34 r pix_groupN-Vert;
#X msg 180 140 0.5;
#X obj 77 411 rgb2hsv;
#X obj 191 67 t b b f;
#X obj 422 123 print;
#X obj 426 92 bng 15 250 50 0 empty empty empty 17 7 0 10 -262144 -1
-1;
#X obj 418 438 r pix_groupN;
#X obj 218 121 / 44;
#X obj 86 187 / 44;
#X obj 77 610 s COLOR3plet;
#X obj 133 411 rgb2CIELch;
#X obj 84 323 s RGB3plet;
#X obj 84 348 r RGB3plet;
#X obj 183 356 r ColorMode;
#X text 314 33 ColorMode 0 normal HSV to Pitch/Timbre/Loudness \; ColorMode
1 CIE-LCH;
#X obj 84 380 demux . .;
#X obj 235 568 t b b;
#X obj 235 590 timer;
#X floatatom 235 611 12 0 0 0 - - -;
#X obj 282 339 r COLOR3plet;
#X obj 289 437 t l b;
#X obj 404 477 f;
#X connect 0 1 30 0;
#X connect 2 0 0 3;
#X connect 3 0 4 0;
#X connect 4 0 2 1;
#X connect 5 0 0 1;
#X connect 6 0 17 1;
#X connect 7 0 18 0;
#X connect 8 0 11 0;
#X connect 8 1 13 0;
#X connect 8 2 12 0;
#X connect 9 0 14 0;
#X connect 14 0 10 0;
#X connect 15 0 39 0;
#X connect 16 0 15 1;
#X connect 17 0 2 0;
#X connect 18 0 0 0;
#X connect 18 1 27 0;
#X connect 18 2 17 0;
#X connect 19 0 22 0;
#X connect 20 0 0 2;
#X connect 21 0 28 0;
#X connect 22 0 0 0;
#X connect 22 1 20 0;
#X connect 22 2 26 0;
#X connect 24 0 23 0;
#X connect 25 0 40 1;
#X connect 26 0 0 3;
#X connect 27 0 0 2;
#X connect 29 0 28 0;
#X connect 31 0 34 0;
#X connect 32 0 34 1;
#X connect 34 0 21 0;
#X connect 34 1 29 0;
#X connect 35 0 36 0;
#X connect 35 1 36 1;
#X connect 36 0 37 0;
#X connect 38 0 15 0;
#X connect 39 0 8 0;
#X connect 39 1 40 0;
#X connect 40 0 12 1;
#X connect 40 0 13 1;
#X connect 40 0 11 1;
#X restore 94 591 pd readPixels;
#X floatatom 178 2 5 0 0 0 - - -;
#X msg 155 -43 1 1 1;
#X floatatom 208 467 5 0 0 0 - - -;
#X obj 45 314 rectangle 3.44 2.59;
#X connect 0 0 21 0;
#X connect 1 0 2 0;
#X connect 2 0 4 0;
#X connect 2 0 52 0;
#X connect 2 0 86 0;
#X connect 3 0 1 0;
#X connect 3 1 5 0;
#X connect 4 0 2 1;
#X connect 5 0 2 1;
#X connect 8 0 38 0;
#X connect 10 0 13 0;
#X connect 11 0 10 1;
#X connect 13 0 23 0;
#X connect 14 0 23 2;
#X connect 15 0 18 0;
#X connect 17 0 78 0;
#X connect 18 0 90 0;
#X connect 21 0 22 0;
#X connect 23 0 108 0;
#X connect 24 0 30 0;
#X connect 24 0 66 0;
#X connect 25 0 10 0;
#X connect 26 0 48 0;
#X connect 27 0 26 1;
#X connect 28 0 93 0;
#X connect 30 0 27 0;
#X connect 31 0 25 0;
#X connect 32 0 10 1;
#X connect 32 0 80 0;
#X connect 33 0 68 0;
#X connect 35 0 36 0;
#X connect 36 0 85 0;
#X connect 37 0 88 0;
#X connect 38 0 41 0;
#X connect 38 1 18 1;
#X connect 39 0 40 0;
#X connect 40 0 0 0;
#X connect 42 0 27 0;
#X connect 43 0 44 0;
#X connect 44 0 47 0;
#X connect 45 0 43 0;
#X connect 46 0 43 1;
#X connect 49 0 19 0;
#X connect 49 0 54 1;
#X connect 49 1 55 0;
#X connect 50 0 49 1;
#X connect 53 0 84 0;
#X connect 54 0 19 0;
#X connect 55 0 54 0;
#X connect 56 0 13 0;
#X connect 57 0 56 0;
#X connect 58 0 59 0;
#X connect 59 0 60 0;
#X connect 60 0 61 0;
#X connect 62 0 108 1;
#X connect 63 0 108 2;
#X connect 64 0 65 0;
#X connect 65 0 13 0;
#X connect 67 0 30 0;
#X connect 68 0 0 0;
#X connect 69 0 70 0;
#X connect 70 0 68 1;
#X connect 71 0 75 0;
#X connect 72 0 73 0;
#X connect 73 0 14 0;
#X connect 74 0 23 3;
#X connect 75 0 72 0;
#X connect 75 1 76 0;
#X connect 76 0 77 0;
#X connect 77 0 74 0;
#X connect 81 0 82 0;
#X connect 82 0 54 1;
#X connect 83 0 82 1;
#X connect 84 0 50 0;
#X connect 85 0 3 0;
#X connect 86 0 29 0;
#X connect 86 1 87 0;
#X connect 87 0 51 0;
#X connect 88 0 26 0;
#X connect 90 0 91 0;
#X connect 90 0 92 0;
#X connect 91 0 90 1;
#X connect 92 0 93 0;
#X connect 92 1 49 0;
#X connect 93 0 90 0;
#X connect 94 0 96 0;
#X connect 96 0 95 0;
#X connect 100 0 102 0;
#X connect 101 0 92 1;
#X connect 102 0 93 0;
#X connect 102 1 101 0;
#X connect 107 0 22 1;
#X restore 18 167 pd VIDEO_MAIN;
#N canvas 681 142 488 374 keyboard_ctrl 0;
#X obj 4 -90 key;
#X obj 55 37 - 48;
#X obj 55 67 * -1;
#X obj 55 99 + 9;
#X obj 254 101 print ////////;
#X obj 257 75 bng 15 250 50 0 empty empty empty 17 7 0 10 -262144 -1
-1;
#X obj 82 130 sel 0 1 2 3 4 5 6 7 8 9;
#X obj 126 266 s ref_scale_rec;
#X msg 8 182 0;
#X msg 309 189 9;
#X msg 40 183 1;
#X msg 68 182 2;
#X msg 100 184 3;
#X msg 134 185 4;
#X msg 167 185 5;
#X msg 198 184 6;
#X msg 235 186 7;
#X msg 273 187 8;
#X obj 32 7 sel 32;
#X msg -67 101 \; vidORstill_init 1;
#X obj 15 -53 spigot;
#X obj 49 -75 r PerformanceMode;
#X obj 8 -23 t b f;
#X msg -126 18 \; NewFrame 1 \; reset_scan bang \;;
#X connect 0 0 20 0;
#X connect 1 0 2 0;
#X connect 2 0 3 0;
#X connect 3 0 6 0;
#X connect 5 0 4 0;
#X connect 6 0 8 0;
#X connect 6 1 10 0;
#X connect 6 2 11 0;
#X connect 6 3 12 0;
#X connect 6 4 13 0;
#X connect 6 5 14 0;
#X connect 6 6 15 0;
#X connect 6 7 16 0;
#X connect 6 8 17 0;
#X connect 6 9 9 0;
#X connect 8 0 7 0;
#X connect 9 0 7 0;
#X connect 10 0 7 0;
#X connect 11 0 7 0;
#X connect 12 0 7 0;
#X connect 13 0 7 0;
#X connect 14 0 7 0;
#X connect 15 0 7 0;
#X connect 16 0 7 0;
#X connect 17 0 7 0;
#X connect 18 0 19 0;
#X connect 18 1 1 0;
#X connect 20 0 22 0;
#X connect 21 0 20 1;
#X connect 22 0 23 0;
#X connect 22 1 18 0;
#X restore 136 15 pd keyboard_ctrl;
#N canvas 651 87 607 643 img4ref_scale 0;
#X obj -40 10 r ref_scale_send;
#X obj 26 67 sel 0 1 2 3 4 5 6 7 8 9;
#X msg 155 97 \; vidORstill_init 0 \; img2load open images/images4ref_scale/0_red.jpg
;
#X msg 134 149 \; vidORstill_init 0 \; img2load open images/images4ref_scale/1_orange.jpg
;
#X msg 120 202 \; vidORstill_init 0 \; img2load open images/images4ref_scale/2_yellow.jpg
;
#X msg 107 252 \; vidORstill_init 0 \; img2load open images/images4ref_scale/3_chartreuse.jpg
;
#X msg 94 308 \; vidORstill_init 0 \; img2load open images/images4ref_scale/4_green.jpg
;
#X msg 82 362 \; vidORstill_init 0 \; img2load open images/images4ref_scale/5_spring_green.jpg
;
#X msg 66 415 \; vidORstill_init 0 \; img2load open images/images4ref_scale/6_sky_blue.jpg
;
#X msg 54 470 \; vidORstill_init 0 \; img2load open images/images4ref_scale/7_slate_blue.jpg
;
#X msg 36 524 \; vidORstill_init 0 \; img2load open images/images4ref_scale/8_indigo.jpg
;
#X msg 21 578 \; vidORstill_init 0 \; img2load open images/images4ref_scale/9_violet.jpg
;
#X connect 0 0 1 0;
#X connect 1 0 11 0;
#X connect 1 1 10 0;
#X connect 1 2 9 0;
#X connect 1 3 8 0;
#X connect 1 4 7 0;
#X connect 1 5 6 0;
#X connect 1 6 5 0;
#X connect 1 7 4 0;
#X connect 1 8 3 0;
#X connect 1 9 2 0;
#X restore 137 47 pd img4ref_scale;
#X restore 371 121 pd STUFF;
#N canvas 314 251 786 452 Help 0;
#X text 25 11 <<<<<< SonarX >>>>>>;
#X text 18 138 * on/off_video: turns on the video capture;
#X text 401 159 * vertical_resize: sets the vertical resolution of
input images;
#X text 18 232 * device: choose different capturing device;
#X text 401 205 * color_space: switch between rgb and gray mode;
#X text 401 299 * Gray_Mode: Controls the modes of playing gray (zero
Saturation) pixels: 0 - no sound 1 - white noise 2 - sawtooth wave
at f0/2 frequency 3 - plays white noise AND sawtooth;
#X text 17 339 * on/off_sound: turns on the sound in the sound patch
;
#X text 401 386 * SustainTime: controls the sustain. "Hold" lets the
sound play when the scanning stops;
#X text 155 11 Lab.I.O. (Mick Mengucci & Francisco X Medeiros);
#X text 20 32 This patch scans vertically frames and outputs the mean
values of H S and V for 45 groups of pixels for each line and/or gray
value for gray pixels. These values control 45 sounds;
#X text 123 120 - sonarX_video -;
#X text 18 214 * frames_speed & pause/play: controls for video;
#X text 18 249 * start/stop: turns the scan on & off;
#X text 17 268 * on/off_OSC: turns on/off udp/OSC connection it connects
video patch to sound patch OBS: by default soundpatch is on Localhost
9998 \, change to your IP address if you want to link different computers
;
#X text 18 157 * input blu radio: switches between video or still image.
to load an image click on the bang "load_still_img" (only works with
still image mode). [pd playlist] to display a sequence of demonstrative
images;
#X text 16 324 * vertical radio: controls scan time;
#X text 402 188 * [s scanspeed] detailed scan control;
#X text 16 355 * save sound: saves actual sound output (ON starts recording
\, OFF stops);
#X text 21 385 * keyboard_control: plays images of reference colors
triggered by keyboard numbers (space bar returns to image);
#X text 523 99 - advanced -;
#X text 401 115 * play_mov: resets a background image when ON and plays
all the pixel that differ from this background;
#X text 401 144 * view mode: switches to single wide screen image;
#X text 401 220 * MouseData: to check pixel values in input image;
#X text 401 237 * Ref4Blind: subpatch for reference scale sounds;
#X text 401 254 * invert_Hue: inverts order of color/sound mapping
;
#X text 402 270 * Vol-Hue function: applies the filter of Volume related
to Hue (warm and cold part of spectrum);
#X text 401 353 * color_shift: used to adjust the the "lowest color"
;
#X text 400 368 * lowest_pitch: regulates the groundtone frequency
f0;
#X text 401 417 * Escalas: chooses different mappings for Hue to pitch
;
#X restore 370 231 pd Help;
#N canvas 1 81 450 300 Credits 0;
#X text 23 65 NOTE: this is a prototype \, created during the investigation
project SeeThroughSound for the FCT-UNL Faculdade de Ciencias e Tecnologia
(UTA-Exp/MAI/0025/2009 of FCT Portugal). In case of bugs and if it
is usefull to you please email mengucci@gmail.com;
#X restore 370 258 pd Credits;
#X text 54 201 kin;
#X obj 84 211 hsl 100 15 6 100 0 0 HiT empty Kin-HiThres 16 8 0 10
-262144 -1 -1 0 1;
#X obj 81 232 nbx 5 14 -1e+37 1e+37 0 0 empty HiT_val HiThr_val 57
8 0 10 -262144 -1 -1 0 256;
