#N canvas 12 210 780 492 10;
#X obj 328 39 sounds;
#N canvas 534 81 831 510 recOSC 0;
#X obj 82 483 makefilename Synth_%d;
#X obj 59 452 pack 0 0 0;
#X obj 63 503 send;
#X obj 59 418 unpack f f f f;
#X obj 98 356 s scalaH;
#X obj 137 282 s 0cross;
#X obj 156 251 s save_sound;
#X obj 176 221 s tikOnOff;
#X obj 78 384 s state;
#X obj 117 329 s f0;
#X obj 195 195 s Gmode;
#X obj 215 172 s SustOnOff;
#X obj 358 197 s SustTime;
#X obj 442 224 s ref_scale;
#X obj 450 199 s c_line;
#X obj 428 285 s functVH-set;
#X obj 388 308 s invertH-set;
#X obj 438 55 bng 15 250 50 0 empty empty empty 17 7 0 10 -262144 -1
-1;
#X obj 459 76 print ++++++++;
#X obj 463 47 repeat 10;
#X obj 183 344 print check;
#X obj 441 156 s V;
#X obj 460 266 s color_shift_set;
#X obj 475 155 s VoiceType-set;
#X obj 455 116 s startstop;
#X obj 4 43 mrpeach/unpackOSC;
#X obj 4 5 mrpeach/udpreceive 9998;
#X obj 59 70 mrpeach/routeOSC /Synth /State /Scale /f0 /0cross /save_sound
/tikOnOff /Gmode /SustOnOff /SustTime /RefScale /c_line /invertH /functVH
/color_shift-set /MainVol /VoiceType-set /startstop;
#X connect 0 0 2 1;
#X connect 1 0 2 0;
#X connect 3 0 1 0;
#X connect 3 1 1 1;
#X connect 3 2 1 2;
#X connect 3 3 0 0;
#X connect 17 0 19 0;
#X connect 19 0 18 0;
#X connect 25 0 27 0;
#X connect 26 0 25 0;
#X connect 27 0 3 0;
#X connect 27 1 8 0;
#X connect 27 2 4 0;
#X connect 27 3 9 0;
#X connect 27 3 20 0;
#X connect 27 4 5 0;
#X connect 27 5 6 0;
#X connect 27 6 7 0;
#X connect 27 7 10 0;
#X connect 27 8 11 0;
#X connect 27 9 12 0;
#X connect 27 10 13 0;
#X connect 27 11 14 0;
#X connect 27 12 16 0;
#X connect 27 13 15 0;
#X connect 27 14 22 0;
#X connect 27 15 21 0;
#X connect 27 16 23 0;
#X connect 27 17 24 0;
#X restore 327 84 pd recOSC;
#X obj 14 13 cnv 15 300 150 empty empty empty 20 12 0 14 -204786 -66577
0;
#X obj 27 31 vsl 20 120 0 1 0 1 V empty volume 0 -9 0 10 -262144 -1
-1 11900 1;
#X obj 220 79 tgl 20 0 functVH functVH-set Apply_VH_filter -5 27 0
10 -86853 -1 -1 1 1;
#X obj 219 117 tgl 20 0 invertHue invertH-set invert_mapping -5 30
0 10 -86277 -1 -1 1 1;
#X obj 220 52 bng 20 250 50 0 reset_fVH empty empty 17 7 0 10 -257985
-1 -1;
#X obj 13 370 hsl 373 15 0 1 0 0 color_shift color_shift_set color_shift
-2 25 0 10 -162280 -1 -1 2306 1;
#X obj 220 24 bng 20 250 50 0 set_fVH_linear empty empty 17 7 0 10
-260097 -1 -1;
#X text 244 24 set fVH const;
#X obj 398 287 cnv 15 370 170 empty empty delay 20 12 0 14 -204786
-66577 0;
#X obj 650 405 line~;
#X obj 650 384 pack 0 5;
#X obj 651 427 s~ delaytime;
#X floatatom 650 364 5 0 0 0 - - -;
#X obj 548 406 line~;
#X obj 548 386 pack 0 5;
#X floatatom 548 366 5 0 0 0 - - -;
#X obj 547 426 s~ delayfeedback;
#X obj 460 295 vsl 15 60 0 1 0 0 empty empty empty 0 -9 0 10 -258113
-1 -1 0 1;
#X obj 548 298 vsl 15 60 0 1 0 0 empty empty empty 0 -9 0 10 -159808
-1 -1 0 1;
#X obj 460 404 line~;
#X obj 460 383 pack 0 5;
#X obj 461 424 s~ delayVol;
#X obj 650 297 vsl 15 60 0 1000 0 0 empty empty empty 0 -9 0 10 -260097
-1 -1 0 1;
#X obj 397 112 cnv 15 370 170 empty empty reverb 20 12 0 14 -204786
-66577 0;
#X text 404 135 level \, dB;
#X text 642 133 liveness \, 0-100;
#X obj 417 158 vsl 15 60 0 100 0 1 empty empty empty 0 -9 0 10 -4032
-1 -1 5900 1;
#X obj 417 249 s revLev;
#X floatatom 417 228 0 0 100 0 - - -;
#X obj 680 155 vsl 15 60 0 100 0 1 empty empty empty 0 -9 0 10 -257985
-1 -1 4800 1;
#X floatatom 680 223 0 0 100 0 - - -;
#X obj 680 246 s revLiv;
#X obj 485 214 mtof;
#X floatatom 485 236 8 0 0 0 - - -;
#X obj 485 143 vsl 15 60 0 127 0 1 empty empty empty 0 -9 0 10 -99865
-1 -1 5900 1;
#X obj 485 259 s revCrossOf;
#X text 579 132 dumping;
#X obj 582 154 vsl 15 60 0 100 0 1 empty empty empty 0 -9 0 10 -4034
-1 -1 3600 1;
#X floatatom 582 224 0 0 100 0 - - -;
#X obj 582 246 s revDump;
#X text 479 119 +over freq \, Hz;
#X text 93 169 draw the function of Volume related to hue;
#N canvas 258 309 450 300 imagem 0;
#X obj 289 123 image colspec_crop_flip.gif;
#X text 135 152 functionVH - draw the function of Volume related to
hue;
#X msg 247 -19 open colspec_crop.gif;
#X msg 251 8 open colspec_crop_flip.gif;
#X obj 221 -69 r invertHue;
#X obj 244 -46 sel 0 1;
#X connect 2 0 0 0;
#X connect 3 0 0 0;
#X connect 4 0 5 0;
#X connect 5 0 2 0;
#X connect 5 1 3 0;
#X coords 0 -1 1 1 379 45 1 100 100;
#X restore 10 325 pd imagem;
#N canvas 662 130 553 585 midi 0;
#X obj 41 -21 r 0cross;
#X obj 115 131 timer;
#X obj 115 65 tgl 15 0 empty empty empty 17 7 0 10 -262144 -1 -1 0
1;
#X obj 115 93 sel 0 1;
#X floatatom 4 200 12 0 0 0 - - -;
#X obj 41 13 bng 15 250 50 0 empty empty empty 17 7 0 10 -262144 -1
-1;
#X obj 115 253 / 8;
#X floatatom 185 200 5 0 0 3 bar_partition - -;
#X obj 115 334 / 24;
#X floatatom 182 381 12 0 0 0 - - -;
#X obj 88 383 metro;
#X obj 85 491 midiout;
#X msg 88 416 248;
#X obj 68 355 tgl 15 0 empty empty empty 17 7 0 10 -262144 -1 -1 0
1;
#X text 109 -31 midi clock;
#X floatatom 220 122 5 0 0 0 - - -;
#X obj 352 -6 vsl 30 300 40 180 0 0 empty empty empty 0 -9 0 10 -262144
-1 -1 0 1;
#X obj 295 318 expr 60000/$f1;
#X floatatom 267 267 5 0 0 0 BPM - -;
#X obj 189 5 r 0XSample;
#X msg 134 417 250;
#X msg 160 444 252;
#X obj 0 317 s Smpl1Lenght;
#X obj 0 275 spigot;
#X obj 48 248 tgl 15 0 empty empty empty 17 7 0 10 -262144 -1 -1 0
1;
#X obj 171 58 spigot;
#X obj 227 37 tgl 15 0 empty empty empty 17 7 0 10 -262144 -1 -1 0
1;
#X obj 206 454 t b b;
#X obj 207 420 bng 15 250 50 0 empty empty empty 17 7 0 10 -262144
-1 -1;
#X obj 44 39 spigot;
#X obj 100 18 tgl 15 0 empty empty empty 17 7 0 10 -262144 -1 -1 0
1;
#X obj 166 281 spigot;
#X obj 214 254 tgl 15 0 empty empty empty 17 7 0 10 -262144 -1 -1 0
1;
#X connect 0 0 5 0;
#X connect 1 0 4 0;
#X connect 1 0 6 0;
#X connect 1 0 23 0;
#X connect 2 0 3 0;
#X connect 3 0 1 0;
#X connect 3 1 1 1;
#X connect 5 0 29 0;
#X connect 6 0 8 0;
#X connect 7 0 6 1;
#X connect 8 0 9 0;
#X connect 8 0 10 1;
#X connect 10 0 12 0;
#X connect 12 0 11 0;
#X connect 13 0 10 0;
#X connect 15 0 6 0;
#X connect 16 0 17 0;
#X connect 16 0 18 0;
#X connect 17 0 8 0;
#X connect 19 0 25 0;
#X connect 19 0 28 0;
#X connect 20 0 11 0;
#X connect 21 0 11 0;
#X connect 23 0 22 0;
#X connect 24 0 23 1;
#X connect 25 0 2 0;
#X connect 26 0 25 1;
#X connect 27 0 20 0;
#X connect 27 1 21 0;
#X connect 28 0 27 0;
#X connect 29 0 2 0;
#X connect 30 0 29 1;
#X connect 32 0 31 1;
#X restore 328 62 pd midi;
#X obj 479 5 cnv 15 190 100 empty empty empty 20 12 0 14 -204786 -66577
0;
#X obj 225 441 s fourthSHift;
#X floatatom 319 424 5 0 0 0 - - -;
#X obj 319 441 s ScaleSize;
#X obj 226 399 r f0;
#X obj 225 420 ftom;
#X floatatom 460 363 5 0 0 0 - - -;
#X obj 507 30 hsl 60 10 0 1 0 1 comp-ratio empty ratio -2 -7 0 10 -101452
-262144 -355 4592 1;
#X obj 507 53 hsl 60 10 0 1 0 1 comp-attack empty attack -2 -7 0 10
-101452 -262144 -355 100 1;
#X obj 594 30 hsl 60 10 0 1 0 1 comp-threshold empty threshold -2 -7
0 10 -101452 -262144 -355 4532 1;
#X obj 595 54 hsl 60 10 0 1 0 1 comp-release empty release -2 -7 0
10 -101452 -262144 -355 2697 1;
#X obj 509 75 hsl 60 10 0 1 0 1 comp-gain empty gain -2 -7 0 10 -101452
-262144 -355 2300 1;
#X obj 487 27 cnv 12 15 13 empty empty 0 1 6 0 12 -33289 -262144 0
;
#X obj 487 50 cnv 12 15 13 empty empty 2 1 6 0 12 -33289 -262144 0
;
#X obj 487 73 cnv 12 15 13 empty empty 4 1 6 0 12 -33289 -262144 0
;
#X obj 574 27 cnv 12 15 13 empty empty 1 1 6 0 12 -33289 -262144 0
;
#X obj 574 50 cnv 12 15 13 empty empty 3 1 6 0 12 -33289 -262144 0
;
#X obj 577 73 tgl 15 1 comp-bypass empty bypass_compr 17 7 0 10 -4034
-1 -1 0 1;
#N canvas 0 50 450 300 (subpatch) 0;
#X array functionVH 256 float 5;
#A 0 0.457108 0.457108 0.457108 0.457108 0.457108 0.457108 0.457108
0.471394 0.471394 0.471394 0.48568 0.48568 0.48568 0.48568 0.499966
0.499966 0.499966 0.499966 0.499966 0.514252 0.514252 0.528538 0.528538
0.528538 0.528538 0.528538 0.528538 0.528538 0.528538 0.535681 0.542824
0.542824 0.542824 0.542824 0.542824 0.549967 0.55711 0.55711 0.55711
0.564253 0.571396 0.571396 0.585682 0.592825 0.599968 0.599968 0.599968
0.599968 0.614254 0.642827 0.657113 0.671399 0.685685 0.699971 0.699971
0.728543 0.728543 0.757115 0.785687 0.785687 0.821402 0.828545 0.878546
0.885689 0.942833 0.942833 1.01903 1.03807 1.05712 1.08569 1.13569
1.15712 1.1857 1.19998 1.24284 1.27141 1.29998 1.32856 1.34284 1.4357
1.45713 1.4857 1.51428 1.53571 1.55713 1.58571 1.59999 1.62856 1.64285
1.65714 1.67142 1.69285 1.71428 1.71428 1.74285 1.75714 1.75714 1.78571
1.8 1.81428 1.83571 1.85714 1.85714 1.87143 1.88571 1.9 1.90476 1.90952
1.91429 1.92857 1.92857 1.92857 1.95 1.95714 1.95714 1.97143 1.98572
1.98572 1.98572 1.98572 1.98572 1.98572 1.98572 1.98572 1.98572 1.98572
1.98572 1.98572 1.98572 1.98572 1.98572 1.98572 1.98572 1.98572 1.98572
1.98572 1.98572 1.98572 1.98572 1.98572 1.98572 1.98572 1.98572 1.98572
1.98572 1.98572 1.98572 1.98572 1.98572 1.98572 1.98572 1.98572 1.98572
1.98572 1.98572 1.98572 1.98572 1.98572 1.98572 1.98572 1.98572 1.98572
1.98572 1.98572 1.98572 1.98572 1.98572 1.98572 1.98572 1.98572 1.98572
1.98572 1.98572 1.98572 1.98572 1.98572 1.98572 1.98572 1.98572 1.98572
1.98572 1.98572 1.98572 1.98572 1.98572 1.98572 1.98572 1.98572 1.98572
1.98572 1.98572 1.98572 1.98572 1.98572 1.98572 1.98572 1.98572 1.98572
1.98572 1.98572 1.98572 1.98572 1.98572 1.98572 1.98572 1.98572 1.98572
1.98572 1.98572 1.98572 1.98572 1.98572 1.98572 1.98572 1.98572 1.98572
1.98572 1.98572 1.98572 1.98572 1.98572 1.98572 1.98572 1.98572 1.98572
1.98572 1.98572 1.98572 1.98572 1.98572 1.98572 1.98572 1.98572 1.98572
1.98572 1.98572 1.98572 1.98572 1.98572 1.98572 1.98572 1.98572 1.98572
1.98572 1.98572 1.98572 1.98572 1.98572 1.98572 1.98572 1.98572 1.98572
1.98572 1.98572 1.98572 1.98572;
#X coords 0 2 255 0 379 140 1 0 0;
#X restore 9 185 graph;
#X text 246 54 Reset fVH;
#X obj 61 75 s VoiceType;
#X obj 61 33 hradio 30 1 0 5 empty VoiceType-set empty 0 -8 0 10 -86853
-262144 -1 3;
#X obj 115 405 cnv 15 97 38 empty empty empty 20 12 0 14 -128992 -228856
0;
#X obj 117 423 s WhiteTreshold;
#X floatatom 117 407 12 0 0 0 - - -;
#N canvas 854 153 450 300 help 0;
#X text 18 8 play_sonarX: gets HSV triplets from SonarX and plays the
corresponding oscillators \, while the f0 is the "gray" ground tone
;
#X restore 328 15 pd help;
#X obj 390 50 s FM-ModFreq;
#X floatatom 392 20 5 0 0 0 - - -;
#N canvas 1 81 450 300 INIT 0;
#X obj 131 59 loadbang;
#X msg 131 82 \; VoiceType-set 3 \; scalaH 10 \; SustOnOff 1 \; Gmode
1 \; functVH-set 1 \; invertH-set 1 \; f0 110 \;;
#X connect 0 0 1 0;
#X restore 327 109 pd INIT;
#X connect 11 0 13 0;
#X connect 12 0 11 0;
#X connect 14 0 12 0;
#X connect 15 0 18 0;
#X connect 16 0 15 0;
#X connect 17 0 16 0;
#X connect 19 0 52 0;
#X connect 20 0 17 0;
#X connect 21 0 23 0;
#X connect 22 0 21 0;
#X connect 24 0 14 0;
#X connect 28 0 30 0;
#X connect 30 0 29 0;
#X connect 31 0 32 0;
#X connect 32 0 33 0;
#X connect 34 0 35 0;
#X connect 35 0 37 0;
#X connect 36 0 34 0;
#X connect 39 0 40 0;
#X connect 40 0 41 0;
#X connect 48 0 49 0;
#X connect 50 0 51 0;
#X connect 51 0 47 0;
#X connect 52 0 22 0;
#X connect 67 0 66 0;
#X connect 70 0 69 0;
#X connect 73 0 72 0;
