#N canvas 101 62 891 537 10;
#X obj 472 317 cnv 15 350 200 empty empty empty 20 12 0 14 -204786
-66577 0;
#X obj 530 139 vsl 15 128 0 1 0 0 empty empty empty 0 -9 0 10 -262144
-1 -1 2134 1;
#X obj 230 41 catch~ R;
#X obj 161 41 catch~ L;
#X obj 530 105 line;
#X obj 524 44 sel 0;
#X msg 510 67 0 500;
#N canvas 93 95 450 300 tik 0;
#X obj 189 11 r 0cross;
#X obj 123 241 throw~ L;
#X obj 185 239 throw~ R;
#X obj 68 51 noise~;
#X obj 151 141 *~;
#X obj 200 118 vline~;
#X obj 66 82 hip~ 500;
#X obj 63 111 lop~ 7000;
#X msg 200 88 1 \, 0 0 10;
#X obj 281 18 r tikOnOff;
#X obj 207 57 spigot;
#X connect 0 0 10 0;
#X connect 3 0 6 0;
#X connect 4 0 1 0;
#X connect 4 0 2 0;
#X connect 5 0 4 1;
#X connect 6 0 7 0;
#X connect 7 0 4 0;
#X connect 8 0 5 0;
#X connect 9 0 10 1;
#X connect 10 0 8 0;
#X restore 796 40 pd tik;
#N canvas 576 114 646 571 record 0;
#X obj 48 -2949 timer;
#X floatatom 49 -2898 10 0 0 0 - - -;
#X msg 49 -2876 resize \$1;
#X msg -164 -2996 start;
#X msg 160 -2793 stop;
#X obj 103 -2576 soundfiler;
#X obj 103 -2631 makefilename %s.wav;
#X obj 125 -2716 time;
#X obj 11 -2803 s grava;
#X obj -55 -3115 r save_sound;
#X msg -21 -2912 const 0;
#X obj -87 -2882 line~;
#X obj -116 -2799 *~;
#X msg -115 -2932 0 \, 1 300;
#X obj -136 -2881 inlet~;
#X obj -39 -3095 sel 1 0;
#X obj 107 -2682 pack f f f;
#X msg 104 -2657 symbol \$0_\$1_\$2;
#X obj -152 -2604 loadbang;
#X obj 19 -2602 s grava;
#X text 235 -3078 resize AFTER the stop of recording;
#X obj 72 -2841 print;
#X msg -67 -2628 resize 999999;
#X obj -126 -3061 t b b b b;
#X obj 49 -2924 * 44.1;
#X msg 246 -2838 normalize -1 \, 1;
#X obj 114 -3058 t b b b b b;
#X msg -64 -2909 0 50;
#X obj -149 -2710 table gravaL;
#X obj -149 -2689 table gravaR;
#X obj -43 -2743 tabwrite~ gravaL;
#X obj -52 -2713 tabwrite~ gravaR;
#X obj -44 -2851 inlet~;
#X obj -68 -2805 *~;
#X msg 103 -2604 write -wave \$1 gravaL gravaR;
#X connect 0 0 24 0;
#X connect 1 0 2 0;
#X connect 2 0 8 0;
#X connect 2 0 21 0;
#X connect 3 0 30 0;
#X connect 3 0 31 0;
#X connect 4 0 30 0;
#X connect 4 0 31 0;
#X connect 6 0 34 0;
#X connect 7 0 16 0;
#X connect 7 1 16 1;
#X connect 7 2 16 2;
#X connect 9 0 15 0;
#X connect 10 0 8 0;
#X connect 11 0 12 1;
#X connect 11 0 33 1;
#X connect 12 0 30 0;
#X connect 13 0 11 0;
#X connect 14 0 12 0;
#X connect 15 0 23 0;
#X connect 15 1 26 0;
#X connect 16 0 17 0;
#X connect 17 0 6 0;
#X connect 18 0 22 0;
#X connect 22 0 19 0;
#X connect 23 0 3 0;
#X connect 23 1 13 0;
#X connect 23 2 0 0;
#X connect 23 3 10 0;
#X connect 24 0 1 0;
#X connect 25 0 8 0;
#X connect 26 0 7 0;
#X connect 26 1 25 0;
#X connect 26 2 0 1;
#X connect 26 3 4 0;
#X connect 26 4 27 0;
#X connect 27 0 11 0;
#X connect 32 0 33 0;
#X connect 33 0 31 0;
#X connect 34 0 5 0;
#X restore 13 509 pd record;
#X obj 522 13 r state;
#N canvas 9 83 977 586 cor_sample 0;
#X obj -75 52 table cor_sample;
#X obj 202 536 soundfiler;
#X msg 310 193 read -resize ./coresWav/0_vermelho.wav cor_sample;
#X msg 329 217 read -resize ./coresWav/1_laranja.wav cor_sample;
#X msg 344 238 read -resize ./coresWav/2_amarelo.wav cor_sample;
#X msg 357 268 read -resize ./coresWav/3_verdeLima.wav cor_sample;
#X msg 372 298 read -resize ./coresWav/4_verde.wav cor_sample;
#X msg 384 329 read -resize ./coresWav/5_verdePrimavera.wav cor_sample
;
#X msg 392 356 read -resize ./coresWav/6_azulCeleste.wav cor_sample
;
#X msg 400 380 read -resize ./coresWav/7_azulCiao.wav cor_sample;
#X msg 406 413 read -resize ./coresWav/8_indigo.wav cor_sample;
#X msg 414 446 read -resize ./coresWav/9_violeta.wav cor_sample;
#X obj 102 72 r ref_scale;
#X obj 127 96 t b a;
#X obj -67 198 tabplay~ cor_sample;
#X obj 31 248 throw~ R;
#X obj -83 245 throw~ L;
#X obj 134 148 sel 9 8 7 6 5 4 3 2 1 0;
#X obj 55 130 delay 500;
#X connect 2 0 1 0;
#X connect 3 0 1 0;
#X connect 4 0 1 0;
#X connect 5 0 1 0;
#X connect 6 0 1 0;
#X connect 7 0 1 0;
#X connect 8 0 1 0;
#X connect 9 0 1 0;
#X connect 10 0 1 0;
#X connect 11 0 1 0;
#X connect 12 0 13 0;
#X connect 13 0 18 0;
#X connect 13 1 17 0;
#X connect 14 0 15 0;
#X connect 14 0 16 0;
#X connect 17 0 2 0;
#X connect 17 1 3 0;
#X connect 17 2 4 0;
#X connect 17 3 5 0;
#X connect 17 4 6 0;
#X connect 17 5 7 0;
#X connect 17 6 8 0;
#X connect 17 7 9 0;
#X connect 17 8 10 0;
#X connect 17 9 11 0;
#X connect 18 0 14 0;
#X restore 759 73 pd cor_sample;
#X obj 203 521 dac~;
#X obj 199 486 clip~ -1 1;
#X obj 270 486 clip~ -1 1;
#X obj 633 396 bng 15 250 50 0 empty empty empty 17 7 0 10 -262144
-1 -1;
#X text 488 347 reset functionVH;
#X obj 571 120 r V;
#N canvas 130 261 805 493 sound&tables 0;
#X obj 100 179 table midi4th_scale;
#X msg 383 301 \; midi4th_scale 0 1 6 11 16 21 26 31 36 41 46 51 56
61 66 71 76 81 86 91 96 101 106 111 116;
#X msg 367 371 \; just_intonation_scale 0 1 1.125 1.25 1.33333 1.5
1.66667 1.875 2 2.25 2.5 2.66667 3 3.3333 3.75 4;
#N canvas 0 50 450 300 (subpatch) 0;
#X array just_intonation_scale 15 float 3;
#A 0 1 1.125 1.25 1.33333 1.5 1.66667 1.875 2 2.25 2.5 2.66667 3 3.3333
3.75 4;
#X coords 0 4 15 0 200 140 1 0 0;
#X restore 93 294 graph;
#X msg 415 84 \; pd dsp 1;
#X obj 352 24 loadbang;
#X obj 352 51 t b b b b b;
#X obj 103 154 table;
#X obj 104 215 table Indian-Scale;
#X msg 399 217 \; Indian-Scale 0 1 1.0535 1.06667 1.11111 1.125 1.18519
1.2 1.25 1.26562 1.33333 1.35 1.40625 1.42222 1.5 1.58025 1.6 1.66667
1.6875 1.7778 1.8 1.875 1.89844;
#X msg 352 435 \; color_shift_set 0.062 \; VoiceType 0 \;;
#X connect 5 0 6 0;
#X connect 6 0 10 0;
#X connect 6 1 2 0;
#X connect 6 2 1 0;
#X connect 6 3 9 0;
#X connect 6 4 4 0;
#X restore 743 134 pd sound&tables;
#X msg 551 67 0.7 50;
#X msg 493 421 \; functionVH const 0.5;
#X obj 633 370 r reset_fVH;
#X obj 493 372 r set_fVH_linear;
#X text 573 11 Volume (on/off) receives state from video patch;
#X obj 230 67 *~ 1;
#X obj 160 65 *~ 1;
#N canvas 1 144 712 393 reverse_arrayH 0;
#X obj 80 79 bng 15 250 50 0 empty empty Reverse_me 18 7 0 8 -262144
-1 -1;
#X obj 80 170 until;
#X obj 146 198 + 1;
#X obj 114 198 f;
#X obj 105 146 s \$1-length;
#X obj 283 305 table tempArray;
#X obj 80 122 t f f f;
#X obj 204 166 s tempArray;
#X msg 204 142 resize \$1;
#X obj 35 278 tabwrite tempArray;
#X obj 480 21 sel;
#X obj 556 11 - 1;
#X obj 556 -13 r \$1-length;
#X obj 114 224 t f f f;
#X obj 27 248 s \$1-eof;
#X obj 480 -12 r \$1-eof;
#X obj 480 93 until;
#X obj 480 68 f;
#X obj 480 126 f;
#X obj 512 126 - 1;
#X obj 531 73 r \$1-length;
#X obj 499 44 r \$1-length;
#X obj 480 178 tabread tempArray;
#X obj 544 225 f;
#X obj 563 201 r \$1-length;
#X obj 544 274 mod;
#X obj 563 249 r \$1-length;
#X obj 574 225 + 1;
#X obj 480 151 t f b;
#X obj 531 96 - 1;
#X text 13 305 Copies array to a temporary location.;
#X msg 297 94 0;
#X obj 297 118 s clr2;
#X obj 423 80 r clr2;
#X obj 133 170 r clr2;
#X obj 80 98 arraysize functionVH;
#X obj 139 251 tabread functionVH;
#X obj 480 305 tabwrite functionVH;
#X obj 80 21 r invertHue;
#X obj 80 50 change;
#X connect 0 0 31 0;
#X connect 0 0 35 0;
#X connect 1 0 3 0;
#X connect 2 0 3 1;
#X connect 3 0 2 0;
#X connect 3 0 13 0;
#X connect 6 0 1 0;
#X connect 6 1 4 0;
#X connect 6 2 8 0;
#X connect 8 0 7 0;
#X connect 10 0 17 0;
#X connect 11 0 10 1;
#X connect 12 0 11 0;
#X connect 13 0 14 0;
#X connect 13 1 36 0;
#X connect 13 2 9 1;
#X connect 15 0 10 0;
#X connect 16 0 18 0;
#X connect 17 0 16 0;
#X connect 18 0 19 0;
#X connect 18 0 28 0;
#X connect 19 0 18 1;
#X connect 20 0 29 0;
#X connect 21 0 17 1;
#X connect 22 0 37 0;
#X connect 23 0 25 0;
#X connect 23 0 27 0;
#X connect 24 0 23 1;
#X connect 25 0 37 1;
#X connect 26 0 25 1;
#X connect 27 0 23 1;
#X connect 28 0 22 0;
#X connect 28 1 23 0;
#X connect 29 0 18 1;
#X connect 31 0 32 0;
#X connect 33 0 18 1;
#X connect 34 0 3 1;
#X connect 35 0 6 0;
#X connect 36 0 9 0;
#X connect 38 0 39 0;
#X connect 39 0 0 0;
#X restore 743 175 pd reverse_arrayH;
#X msg 630 268 \; functionVH const 0;
#X msg 633 420 \; functionVH cosinesum 5 1 1 \; functionVH resize 256
;
#X msg 623 210 \; functionVH cosinesum 1023 1 1 \; functionVH resize
230;
#X floatatom 638 75 5 0 0 0 - - -;
#X obj 638 110 s V3-NoiseVol;
#N canvas 26 54 521 545 SYNTHS 0;
#X obj 15 19 playHSVpan 0 -45;
#X obj 338 22 playHSVpan 30 16.363;
#X obj 178 252 playHSVpan 22 0;
#X obj 337 82 playHSVpan 32 20.454;
#X obj 337 286 playHSVpan 38 32.7727;
#X obj 15 49 playHSVpan 1 -42.9545;
#X obj 14 79 playHSVpan 2 -40.909;
#X obj 14 115 playHSVpan 3 -38.8635;
#X obj 13 150 playHSVpan 4 -36.818;
#X obj 14 180 playHSVpan 5 -34.7725;
#X obj 15 215 playHSVpan 6 -32.7727;
#X obj 14 250 playHSVpan 7 -30.6815;
#X obj 14 283 playHSVpan 8 -28.636;
#X obj 12 316 playHSVpan 9 -26.5905;
#X obj 10 353 playHSVpan 10 -24.545;
#X obj 10 388 playHSVpan 11 -22.4995;
#X obj 9 425 playHSVpan 12 -20.454;
#X obj 10 460 playHSVpan 13 -18.4085;
#X obj 10 494 playHSVpan 14 -16.363;
#X obj 179 21 playHSVpan 15 -14.3175;
#X obj 179 51 playHSVpan 16 -12.272;
#X obj 178 81 playHSVpan 17 -10.2265;
#X obj 178 117 playHSVpan 18 -8.18099;
#X obj 177 152 playHSVpan 19 -6.13549;
#X obj 178 183 playHSVpan 20 -4.08999;
#X obj 179 217 playHSVpan 21 -2.04449;
#X obj 333 497 playHSVpan 44 45;
#X obj 333 463 playHSVpan 43 42.9545;
#X obj 332 428 playHSVpan 42 40.909;
#X obj 178 285 playHSVpan 23 2.04449;
#X obj 176 318 playHSVpan 24 4.08999;
#X obj 174 355 playHSVpan 25 6.13549;
#X obj 174 390 playHSVpan 26 8.18099;
#X obj 173 427 playHSVpan 27 10.2265;
#X obj 174 462 playHSVpan 28 12.272;
#X obj 174 496 playHSVpan 29 14.3175;
#X obj 338 52 playHSVpan 31 18.4085;
#X obj 337 118 playHSVpan 33 22.4995;
#X obj 336 153 playHSVpan 34 24.545;
#X obj 337 184 playHSVpan 35 26.5905;
#X obj 338 218 playHSVpan 36 28.636;
#X obj 337 253 playHSVpan 37 30.6815;
#X obj 335 319 playHSVpan 39 34.7725;
#X obj 333 356 playHSVpan 40 36.818;
#X obj 333 391 playHSVpan 41 38.8635;
#X restore 781 104 pd SYNTHS;
#N canvas 117 78 513 458 FX-PROCESS 0;
#X obj 96 55 inlet~;
#X obj 173 58 inlet~;
#X obj 70 424 outlet~;
#X obj 144 426 outlet~;
#X obj 141 195 hip~ 5;
#X obj 73 195 hip~ 5;
#X obj 82 158 lop~ 20000;
#X obj 154 157 lop~ 20000;
#N canvas 43 55 953 540 efeitos 0;
#X obj 39 14 inlet~;
#X obj 354 17 inlet~;
#X obj 372 171 receive~ delfR;
#X obj 67 164 receive~ delfL;
#X obj 34 233 delwrite~ delayL 1000;
#X obj 353 233 delwrite~ delayR 1000;
#X obj 121 311 vd~ delayL;
#X obj 469 315 vd~ delayR;
#X obj 488 394 send~ delfR;
#X obj 104 412 send~ delfL;
#X obj 121 279 r~ delaytime;
#X obj 472 286 r~ delaytime;
#X obj 183 553 outlet~;
#X obj 555 555 outlet~;
#X obj 490 344 *~;
#X obj 131 342 *~;
#X obj 163 338 r~ delayfeedback;
#X obj 527 342 r~ delayfeedback;
#X obj 38 115 *~;
#X obj 352 123 *~;
#X obj 70 93 r~ delayVol;
#X obj 370 90 r~ delayVol;
#X obj 0 462 r revLev;
#X obj -45 514 rev2~ 0 90 3000 20;
#X obj 284 488 rev2~ 0 90 3000 20;
#X obj 58 456 r revLiv;
#X obj 70 475 r revCrossOf;
#X obj 86 502 r revDump;
#X obj 347 432 r revLev;
#X obj 406 429 r revLiv;
#X obj 431 451 r revCrossOf;
#X obj 461 474 r revDump;
#X obj 103 380 lop~ 7000;
#X obj 489 371 lop~ 7000;
#X connect 0 0 18 0;
#X connect 0 0 23 0;
#X connect 1 0 19 0;
#X connect 1 0 24 0;
#X connect 2 0 5 0;
#X connect 3 0 4 0;
#X connect 6 0 12 0;
#X connect 6 0 15 0;
#X connect 6 0 23 0;
#X connect 7 0 13 0;
#X connect 7 0 14 0;
#X connect 7 0 24 0;
#X connect 10 0 6 0;
#X connect 11 0 7 0;
#X connect 14 0 33 0;
#X connect 15 0 32 0;
#X connect 16 0 15 1;
#X connect 17 0 14 1;
#X connect 18 0 4 0;
#X connect 19 0 5 0;
#X connect 20 0 18 1;
#X connect 21 0 19 1;
#X connect 22 0 23 1;
#X connect 23 0 12 0;
#X connect 24 0 13 0;
#X connect 25 0 23 2;
#X connect 26 0 23 3;
#X connect 27 0 23 4;
#X connect 28 0 24 1;
#X connect 29 0 24 2;
#X connect 30 0 24 3;
#X connect 31 0 24 4;
#X connect 32 0 9 0;
#X connect 33 0 8 0;
#X restore 74 248 pd efeitos;
#X obj 22 84 mtof;
#X floatatom 22 106 8 0 0 0 - - -;
#X obj 22 13 vsl 15 60 0 186 0 0 empty empty empty 0 -9 0 10 -99865
-1 -1 0 1;
#X text -26 -12 low pass freq;
#X obj 205 383 compressore~;
#X obj 206 346 moog~;
#X obj 233 238 sig~;
#X obj 272 240 sig~;
#X obj 233 207 mtof;
#X obj 20 354 moog~;
#X obj 21 317 +~;
#X obj 195 306 +~;
#X msg 233 181 135;
#X msg 281 189 0;
#X obj 242 151 loadbang;
#X obj 251 86 switch~;
#X obj 251 44 inlet;
#X obj 19 382 compressore~;
#X connect 0 0 6 0;
#X connect 1 0 7 0;
#X connect 4 0 8 1;
#X connect 4 0 20 0;
#X connect 5 0 8 0;
#X connect 5 0 19 0;
#X connect 6 0 5 0;
#X connect 7 0 4 0;
#X connect 8 0 19 1;
#X connect 8 1 20 1;
#X connect 9 0 10 0;
#X connect 10 0 7 1;
#X connect 10 0 6 1;
#X connect 11 0 9 0;
#X connect 13 0 3 0;
#X connect 14 0 13 0;
#X connect 15 0 14 1;
#X connect 15 0 18 1;
#X connect 16 0 14 2;
#X connect 16 0 18 2;
#X connect 17 0 15 0;
#X connect 18 0 26 0;
#X connect 19 0 18 0;
#X connect 20 0 14 0;
#X connect 21 0 17 0;
#X connect 22 0 16 0;
#X connect 23 0 21 0;
#X connect 23 0 22 0;
#X connect 25 0 24 0;
#X connect 26 0 2 0;
#X restore 145 274 pd FX-PROCESS;
#X obj 129 229 demux~;
#X obj 180 221 demux~;
#X obj 127 334 throw~ MainOut-L;
#X obj 234 336 throw~ MainOut-R;
#X obj 199 447 catch~ MainOut-L;
#X obj 313 447 catch~ MainOut-R;
#X obj 220 173 tgl 15 0 empty empty empty 17 7 0 10 -262144 -1 -1 1
1;
#X obj 220 196 t f f;
#X text 247 171 Effects Bypass;
#X obj 220 146 loadbang;
#X connect 1 0 23 1;
#X connect 1 0 24 1;
#X connect 2 0 23 0;
#X connect 3 0 24 0;
#X connect 4 0 1 0;
#X connect 5 0 6 0;
#X connect 5 1 18 0;
#X connect 6 0 4 0;
#X connect 9 0 5 0;
#X connect 12 0 11 0;
#X connect 13 0 11 1;
#X connect 14 0 27 0;
#X connect 16 0 1 0;
#X connect 18 0 4 0;
#X connect 20 0 14 0;
#X connect 21 0 19 0;
#X connect 23 0 34 0;
#X connect 24 0 33 0;
#X connect 29 0 30 0;
#X connect 32 0 35 0;
#X connect 32 1 36 0;
#X connect 33 0 35 0;
#X connect 33 1 32 0;
#X connect 34 0 36 0;
#X connect 34 1 32 1;
#X connect 37 0 12 0;
#X connect 37 0 8 0;
#X connect 38 0 13 0;
#X connect 38 0 8 1;
#X connect 39 0 40 0;
#X connect 40 0 33 0;
#X connect 40 0 34 0;
#X connect 40 1 32 2;
#X connect 42 0 39 0;
