#N canvas 558 106 607 661 10;
#X obj 115 170 f;
#X obj 129 122 until;
#X obj 138 91 t f b;
#X obj 157 209 + 1;
#X msg 183 134 0;
#X obj 341 127 table testHvalues 1.65814e+07;
#X obj 341 103 table testCvalues 1.65814e+07;
#X obj 339 76 table testLvalues 1.65814e+07;
#X obj 208 323 f;
#X obj 244 329 + 1;
#X obj 206 408 sel 255;
#X msg 332 299 0;
#X obj 242 481 f;
#X obj 275 481 + 1;
#X obj 375 538 sel 255;
#X obj 248 531 t f b;
#X obj 108 208 t f f f;
#X obj 63 280 t f b;
#X obj 206 376 mod 256;
#X obj 143 35 spigot;
#X msg 239 -21 0;
#X obj 233 5 tgl 15 0 empty empty empty 17 7 0 10 -262144 -1 -1 0 1
;
#X msg 142 64 256;
#X obj 165 241 sel 255;
#X obj 166 265 t b b b;
#X obj 166 292 s onefinish;
#X obj 165 -21 r onefinish;
#X obj 374 573 s acabou;
#X obj 274 -16 r acabou;
#X obj 296 205 r acabou;
#X obj 305 242 print ACABOU;
#X obj 135 9 delay 0.1;
#X obj 396 330 tabread testLvalues;
#X floatatom 399 234 12 0 0 0 - - -, f 12;
#X floatatom 403 376 12 0 0 0 - - -, f 12;
#X msg 450 262 set testCvalues;
#X obj 490 204 r onefinish;
#X obj 91 506 t f b;
#X obj 203 432 t b b b;
#X obj 35 80 s rest;
#X msg 34 53 0;
#X msg 457 292 set testHvalues;
#X obj 261 447 r rest;
#X msg 448 575 \; testLvalues const 0 \; testCvalues const 0 \; testHvalues
const 0 \;;
#X obj 280 291 bng 15 250 50 0 empty empty empty 17 7 0 10 -262144
-1 -1;
#X obj 204 351 t f f;
#X msg 244 227 254;
#X obj 192 477 bng 15 250 50 0 empty empty empty 17 7 0 10 -262144
-1 -1;
#X obj 22 5 bng 15 250 50 0 empty empty empty 17 7 0 10 -262144 -1
-1;
#X obj 31 27 t b b b;
#X obj 335 408 bng 15 250 50 0 empty empty empty 17 7 0 10 -262144
-1 -1;
#X msg 94 36 1;
#X obj 63 346 s R;
#X obj 39 308 / 255;
#X obj 95 548 / 255;
#X obj 99 581 s G;
#X obj 244 564 / 255;
#X obj 248 597 s B;
#X connect 0 0 16 0;
#X connect 1 0 0 0;
#X connect 2 0 1 0;
#X connect 2 1 4 0;
#X connect 3 0 0 1;
#X connect 4 0 0 1;
#X connect 8 0 45 0;
#X connect 9 0 8 1;
#X connect 10 0 38 0;
#X connect 11 0 8 1;
#X connect 12 0 13 0;
#X connect 12 0 14 0;
#X connect 12 0 15 0;
#X connect 13 0 12 1;
#X connect 14 0 27 0;
#X connect 15 0 56 0;
#X connect 16 0 23 0;
#X connect 16 1 3 0;
#X connect 16 2 17 0;
#X connect 17 0 53 0;
#X connect 18 0 10 0;
#X connect 18 0 37 0;
#X connect 19 0 22 0;
#X connect 20 0 21 0;
#X connect 21 0 19 1;
#X connect 22 0 2 0;
#X connect 23 0 24 0;
#X connect 24 0 25 0;
#X connect 24 1 8 0;
#X connect 26 0 31 0;
#X connect 28 0 20 0;
#X connect 29 0 30 0;
#X connect 31 0 19 0;
#X connect 32 0 34 0;
#X connect 33 0 32 0;
#X connect 35 0 32 0;
#X connect 37 0 54 0;
#X connect 38 0 47 0;
#X connect 38 1 11 0;
#X connect 38 2 12 0;
#X connect 40 0 39 0;
#X connect 41 0 32 0;
#X connect 42 0 12 1;
#X connect 44 0 8 0;
#X connect 45 0 9 0;
#X connect 45 1 18 0;
#X connect 46 0 8 1;
#X connect 48 0 49 0;
#X connect 49 0 22 0;
#X connect 49 1 40 0;
#X connect 49 2 51 0;
#X connect 50 0 12 0;
#X connect 51 0 21 0;
#X connect 53 0 52 0;
#X connect 54 0 55 0;
#X connect 56 0 57 0;
