#N canvas 513 345 450 300 10;
#X obj 163 181 *~;
#X obj 258 180 *~;
#X obj 300 140 -~;
#X obj 299 105 sig~ 1;
#X obj 336 52 inlet~ crossfade;
#X obj 212 247 outlet~;
#X obj 54 37 inlet~ sig1;
#X obj 236 37 inlet~ sig2;
#X connect 0 0 5 0;
#X connect 1 0 5 0;
#X connect 2 0 1 1;
#X connect 3 0 2 0;
#X connect 4 0 2 1;
#X connect 4 0 0 1;
#X connect 6 0 1 0;
#X connect 7 0 0 0;
