#N canvas 325 65 787 702 10;
#X obj 17 128 expr (4*$f1)/($f1+(15*$f2)+(3*$f3));
#X obj 295 127 expr (9*$f2)/($f1+(15*$f2)+(3*$f3));
#X obj 17 158 s varU;
#X obj 284 156 s varV;
#X obj 241 128 / 100;
#X obj 293 205 > 0.008856;
#X obj 242 183 t f f;
#X obj 242 236 demux . .;
#X obj 291 262 expr pow($f1 \, $f2);
#X msg 386 218 1;
#X msg 420 218 3;
#X obj 403 242 /;
#X obj 514 170 loadbang;
#X obj 401 195 t b b;
#X obj 472 251 /;
#X obj 470 204 t b b;
#X msg 455 227 16;
#X msg 489 227 116;
#X obj 242 295 expr (7.787*$f1)+$f2;
#X obj 265 332 s varY;
#X msg 522 283 \; refX 95.047 \; refY 100 \; refZ 108.883 \;;
#X obj 197 362 r refX;
#X obj 372 364 r refZ;
#X obj 283 364 r refY;
#X obj 72 415 expr (4*$f1)/($f1+(15*$f2)+(3*$f3));
#X obj 316 416 expr (9*$f2)/($f1+(15*$f2)+(3*$f3));
#X obj 72 440 s refU;
#X obj 318 447 s refV;
#X obj 72 563 expr (116*$f1)-16;
#X obj 72 539 r varY;
#X obj 72 598 s CIE-L;
#X obj 450 591 expr 13*$f1*($f2-$f3);
#X obj 220 605 expr 13*$f1*($f2-$f3);
#X obj 272 494 r CIE-L;
#X obj 447 509 r varU;
#X obj 566 546 r refU;
#X obj 339 511 r varV;
#X obj 361 591 r refV;
#X obj 450 616 s CIE-u;
#X obj 221 629 s CIE-v;
#X obj 189 17 inlet XYZ3plet;
#X obj 203 44 unpack f f f;
#X floatatom 358 163 12 0 0 0 - - -, f 12;
#X obj 351 16 print Y;
#X obj 301 17 print X;
#X obj 401 14 print Z;
#X obj 257 552 t f f;
#X obj 264 530 f;
#X obj 322 543 t b f;
#X obj 63 633 print L;
#X obj 244 655 print v;
#X obj 422 654 print u;
#X msg 622 283 \; refX 94.811 \; refY 100 \; refZ 107.304 \;;
#X text 615 345 observer=10ยบ \; Illuminant=D65 \;;
#X text 503 342 observer=2ยบ \; Illuminant=D65 \;;
#X connect 0 0 2 0;
#X connect 1 0 3 0;
#X connect 1 0 42 0;
#X connect 4 0 6 0;
#X connect 5 0 7 1;
#X connect 6 0 7 0;
#X connect 6 1 5 0;
#X connect 7 0 18 0;
#X connect 7 1 8 0;
#X connect 8 0 19 0;
#X connect 9 0 11 0;
#X connect 10 0 11 1;
#X connect 11 0 8 1;
#X connect 12 0 13 0;
#X connect 12 0 15 0;
#X connect 12 0 20 0;
#X connect 13 0 9 0;
#X connect 13 1 10 0;
#X connect 14 0 18 1;
#X connect 15 0 16 0;
#X connect 15 1 17 0;
#X connect 16 0 14 0;
#X connect 17 0 14 1;
#X connect 18 0 19 0;
#X connect 21 0 24 0;
#X connect 21 0 25 0;
#X connect 22 0 24 2;
#X connect 22 0 25 2;
#X connect 23 0 24 1;
#X connect 23 0 25 1;
#X connect 24 0 26 0;
#X connect 25 0 27 0;
#X connect 28 0 30 0;
#X connect 28 0 49 0;
#X connect 29 0 28 0;
#X connect 31 0 38 0;
#X connect 31 0 51 0;
#X connect 32 0 39 0;
#X connect 32 0 50 0;
#X connect 33 0 47 1;
#X connect 34 0 31 1;
#X connect 35 0 31 2;
#X connect 36 0 48 0;
#X connect 37 0 32 2;
#X connect 40 0 41 0;
#X connect 41 0 0 0;
#X connect 41 0 1 0;
#X connect 41 1 4 0;
#X connect 41 1 0 1;
#X connect 41 1 1 1;
#X connect 41 2 0 2;
#X connect 41 2 1 2;
#X connect 46 0 32 0;
#X connect 46 1 31 0;
#X connect 47 0 46 0;
#X connect 48 0 47 0;
#X connect 48 1 32 1;
